<svg width="994" height="113" viewBox="0 0 994 113" fill="none" xmlns="http://www.w3.org/2000/svg">
<path d="M87.1085 111.296H68.1931V62.8153H19.3348V111.296H0.339844V2.01562H19.3348V47.4961H68.1931V2.01562H87.1085V111.296Z" fill="#D9D9D9"/>
<path d="M172.07 85.8436H129.729L120.867 111.296H101.117L142.405 2.01562H159.433L200.781 111.296H180.971L172.03 85.8436H172.07ZM135.074 70.5245H166.745L150.909 25.1831L135.074 70.5245Z" fill="#D9D9D9"/>
<path d="M232.19 96.1359H281.804V111.296H213.195V2.01562H232.19V96.1359Z" fill="#D9D9D9"/>
<path d="M378.769 59.517C378.769 70.2264 376.921 79.6245 373.205 87.6914C369.51 95.7782 364.205 101.977 357.33 106.309C350.455 110.64 342.527 112.806 333.566 112.806C324.605 112.806 316.817 110.64 309.882 106.309C302.948 101.977 297.603 95.8179 293.828 87.8106C290.053 79.8034 288.126 70.5642 288.086 60.113V53.9536C288.086 43.3037 289.973 33.8857 293.749 25.7394C297.524 17.593 302.849 11.3342 309.743 7.02262C316.638 2.71101 324.526 0.525391 333.427 0.525391C342.329 0.525391 350.237 2.67125 357.111 6.94312C363.986 11.215 369.311 17.3745 373.066 25.4016C376.822 33.4287 378.729 42.7673 378.769 53.437V59.517ZM359.774 53.8145C359.774 41.7142 357.489 32.4154 352.899 25.9579C348.329 19.5005 341.832 16.2816 333.427 16.2816C325.023 16.2816 318.804 19.5004 314.174 25.9182C309.545 32.3558 307.18 41.436 307.081 53.1985V59.4971C307.081 71.498 309.425 80.7968 314.095 87.3338C318.764 93.8906 325.261 97.1691 333.566 97.1691C341.872 97.1691 348.429 93.9701 352.959 87.5722C357.489 81.1743 359.754 71.816 359.754 59.4971V53.7946L359.774 53.8145Z" fill="#D9D9D9"/>
<path d="M499.832 62.5172H454.948V96.1359H507.403V111.296H435.953V2.01562H506.886V17.3348H454.948V47.516H499.832V62.5371V62.5172Z" fill="#D9D9D9"/>
<path d="M522.879 111.296V2.01562H555.147C564.803 2.01562 573.367 4.16149 580.857 8.4731C588.328 12.7847 594.13 18.8846 598.223 26.7925C602.316 34.7004 604.383 43.7607 604.383 53.9536V59.4375C604.383 69.7893 602.316 78.9093 598.183 86.7576C594.051 94.6059 588.169 100.666 580.54 104.918C572.91 109.17 564.167 111.296 554.312 111.296H522.859H522.879ZM541.874 17.3348V96.1359H554.253C564.207 96.1359 571.857 93.0164 577.182 86.7974C582.507 80.5585 585.229 71.6173 585.328 59.974V53.894C585.328 42.0321 582.745 32.9718 577.599 26.7329C572.453 20.4741 564.962 17.3546 555.167 17.3546H541.874V17.3348Z" fill="#D9D9D9"/>
<path d="M643.345 111.296H624.43V2.01562H643.345V111.296Z" fill="#D9D9D9"/>
<path d="M743.463 17.3348H709.387V111.296H690.551V17.3348H656.773V2.01562H743.463V17.3348Z" fill="#D9D9D9"/>
<path d="M777.837 111.296H758.922V2.01562H777.837V111.296Z" fill="#D9D9D9"/>
<path d="M888.39 59.517C888.39 70.2264 886.542 79.6245 882.827 87.6914C879.131 95.7782 873.826 101.977 866.951 106.309C860.076 110.64 852.149 112.806 843.188 112.806C834.227 112.806 826.438 110.64 819.504 106.309C812.569 101.977 807.224 95.8179 803.449 87.8106C799.674 79.8034 797.747 70.5642 797.707 60.113V53.9536C797.707 43.3037 799.595 33.8857 803.37 25.7394C807.145 17.593 812.47 11.3342 819.364 7.02262C826.259 2.71101 834.147 0.525391 843.048 0.525391C851.95 0.525391 859.858 2.67125 866.733 6.94312C873.607 11.215 878.932 17.3745 882.687 25.4016C886.443 33.4287 888.35 42.7673 888.39 53.437V59.517ZM869.395 53.8145C869.395 41.7142 867.11 32.4154 862.52 25.9579C857.95 19.5005 851.453 16.2816 843.048 16.2816C834.644 16.2816 828.425 19.5004 823.795 25.9182C819.166 32.3558 816.801 41.436 816.702 53.1985V59.4971C816.702 71.498 819.047 80.7968 823.716 87.3338C828.385 93.8906 834.882 97.1691 843.188 97.1691C851.493 97.1691 858.05 93.9701 862.58 87.5722C867.11 81.1743 869.375 71.816 869.375 59.4971V53.7946L869.395 53.8145Z" fill="#D9D9D9"/>
<path d="M994.002 111.296H975.007L926.288 33.7665V111.296H907.293V2.01562H926.288L975.146 79.8432V2.01562H993.982V111.296H994.002Z" fill="#D9D9D9"/>
</svg>
