<svg width="994" height="113" viewBox="0 0 994 113" fill="none" xmlns="http://www.w3.org/2000/svg">
<path d="M86.8898 111.296H67.9743V62.8153H19.116V111.296H0.121094V2.01562H19.116V47.4961H67.9743V2.01562H86.8898V111.296Z" fill="#161616"/>
<path d="M171.851 85.8436H129.51L120.648 111.296H100.898L142.187 2.01562H159.214L200.562 111.296H180.753L171.812 85.8436H171.851ZM134.855 70.5245H166.526L150.691 25.1831L134.855 70.5245Z" fill="#161616"/>
<path d="M231.971 96.1359H281.585V111.296H212.977V2.01562H231.971V96.1359Z" fill="#161616"/>
<path d="M378.546 59.517C378.546 70.2264 376.698 79.6245 372.983 87.6914C369.287 95.7782 363.982 101.977 357.107 106.309C350.233 110.64 342.305 112.806 333.344 112.806C324.383 112.806 316.594 110.64 309.66 106.309C302.725 101.977 297.381 95.8179 293.605 87.8106C289.83 79.8034 287.903 70.5642 287.863 60.113V53.9536C287.863 43.3037 289.751 33.8857 293.526 25.7394C297.301 17.593 302.626 11.3342 309.521 7.02262C316.415 2.71101 324.303 0.525391 333.205 0.525391C342.106 0.525391 350.014 2.67125 356.889 6.94312C363.763 11.215 369.088 17.3745 372.844 25.4016C376.599 33.4287 378.506 42.7673 378.546 53.437V59.517ZM359.551 53.8145C359.551 41.7142 357.266 32.4154 352.677 25.9579C348.107 19.5005 341.609 16.2816 333.205 16.2816C324.8 16.2816 318.581 19.5004 313.951 25.9182C309.322 32.3558 306.958 41.436 306.858 53.1985V59.4971C306.858 71.498 309.203 80.7968 313.872 87.3338C318.541 93.8906 325.038 97.1691 333.344 97.1691C341.649 97.1691 348.206 93.9701 352.736 87.5722C357.266 81.1743 359.531 71.816 359.531 59.4971V53.7946L359.551 53.8145Z" fill="#161616"/>
<path d="M499.61 62.5172H454.725V96.1359H507.18V111.296H435.73V2.01562H506.663V17.3348H454.725V47.516H499.61V62.5371V62.5172Z" fill="#161616"/>
<path d="M522.657 111.296V2.01562H554.924C564.581 2.01562 573.144 4.16149 580.635 8.4731C588.106 12.7847 593.907 18.8846 598 26.7925C602.094 34.7004 604.16 43.7607 604.16 53.9536V59.4375C604.16 69.7893 602.094 78.9093 597.961 86.7576C593.828 94.6059 587.947 100.666 580.317 104.918C572.687 109.17 563.945 111.296 554.09 111.296H522.637H522.657ZM541.652 17.3348V96.1359H554.03C563.984 96.1359 571.634 93.0164 576.959 86.7974C582.284 80.5585 585.006 71.6173 585.105 59.974V53.894C585.105 42.0321 582.522 32.9718 577.376 26.7329C572.23 20.4741 564.74 17.3546 554.944 17.3546H541.652V17.3348Z" fill="#161616"/>
<path d="M643.123 111.296H624.207V2.01562H643.123V111.296Z" fill="#161616"/>
<path d="M743.248 17.3348H709.172V111.296H690.336V17.3348H656.559V2.01562H743.248V17.3348Z" fill="#161616"/>
<path d="M777.619 111.296H758.703V2.01562H777.619V111.296Z" fill="#161616"/>
<path d="M888.171 59.517C888.171 70.2264 886.323 79.6245 882.608 87.6914C878.912 95.7782 873.607 101.977 866.732 106.309C859.858 110.64 851.93 112.806 842.969 112.806C834.008 112.806 826.219 110.64 819.285 106.309C812.35 101.977 807.006 95.8179 803.23 87.8106C799.455 79.8034 797.528 70.5642 797.488 60.113V53.9536C797.488 43.3037 799.376 33.8857 803.151 25.7394C806.926 17.593 812.251 11.3342 819.146 7.02262C826.04 2.71101 833.928 0.525391 842.83 0.525391C851.731 0.525391 859.639 2.67125 866.514 6.94312C873.388 11.215 878.713 17.3745 882.469 25.4016C886.224 33.4287 888.131 42.7673 888.171 53.437V59.517ZM869.176 53.8145C869.176 41.7142 866.891 32.4154 862.302 25.9579C857.732 19.5005 851.234 16.2816 842.83 16.2816C834.425 16.2816 828.206 19.5004 823.577 25.9182C818.947 32.3558 816.583 41.436 816.483 53.1985V59.4971C816.483 71.498 818.828 80.7968 823.497 87.3338C828.166 93.8906 834.663 97.1691 842.969 97.1691C851.274 97.1691 857.831 93.9701 862.361 87.5722C866.891 81.1743 869.156 71.816 869.156 59.4971V53.7946L869.176 53.8145Z" fill="#161616"/>
<path d="M993.779 111.296H974.784L926.065 33.7665V111.296H907.07V2.01562H926.065L974.924 79.8432V2.01562H993.76V111.296H993.779Z" fill="#161616"/>
</svg>
