<svg width="994" height="113" viewBox="0 0 994 113" fill="none" xmlns="http://www.w3.org/2000/svg">
<path d="M86.8898 110.806H67.9743V62.3251H19.116V110.806H0.121094V1.52539H19.116V47.0059H67.9743V1.52539H86.8898V110.806Z" fill="black"/>
<path d="M171.851 85.3534H129.51L120.648 110.806H100.898L142.187 1.52539H159.214L200.562 110.806H180.753L171.812 85.3534H171.851ZM134.855 70.0343H166.526L150.691 24.6928L134.855 70.0343Z" fill="black"/>
<path d="M231.971 95.6456H281.585V110.806H212.977V1.52539H231.971V95.6456Z" fill="black"/>
<path d="M378.546 59.0267C378.546 69.7362 376.698 79.1343 372.983 87.2012C369.287 95.2879 363.982 101.487 357.107 105.819C350.233 110.15 342.305 112.316 333.344 112.316C324.383 112.316 316.594 110.15 309.66 105.819C302.725 101.487 297.381 95.3277 293.605 87.3204C289.83 79.3131 287.903 70.074 287.863 59.6228V53.4634C287.863 42.8135 289.751 33.3955 293.526 25.2491C297.301 17.1028 302.626 10.844 309.521 6.53238C316.415 2.22077 324.303 0.0351562 333.205 0.0351562C342.106 0.0351562 350.014 2.18102 356.889 6.45289C363.763 10.7248 369.088 16.8842 372.844 24.9114C376.599 32.9385 378.506 42.277 378.546 52.9468V59.0267ZM359.551 53.3243C359.551 41.224 357.266 31.9252 352.677 25.4677C348.107 19.0102 341.609 15.7914 333.205 15.7914C324.8 15.7914 318.581 19.0102 313.951 25.428C309.322 31.8656 306.958 40.9458 306.858 52.7083V59.0068C306.858 71.0078 309.203 80.3066 313.872 86.8436C318.541 93.4004 325.038 96.6788 333.344 96.6788C341.649 96.6788 348.206 93.4799 352.736 87.082C357.266 80.6841 359.531 71.3257 359.531 59.0068V53.3044L359.551 53.3243Z" fill="black"/>
<path d="M499.61 62.027H454.725V95.6456H507.18V110.806H435.73V1.52539H506.663V16.8445H454.725V47.0258H499.61V62.0469V62.027Z" fill="black"/>
<path d="M522.657 110.806V1.52539H554.924C564.581 1.52539 573.144 3.67126 580.635 7.98287C588.106 12.2945 593.907 18.3943 598 26.3022C602.094 34.2102 604.16 43.2705 604.16 53.4634V58.9473C604.16 69.2991 602.094 78.4191 597.961 86.2674C593.828 94.1157 587.947 100.176 580.317 104.428C572.687 108.68 563.945 110.806 554.09 110.806H522.637H522.657ZM541.652 16.8445V95.6456H554.03C563.984 95.6456 571.634 92.5262 576.959 86.3072C582.284 80.0682 585.006 71.1271 585.105 59.4837V53.4038C585.105 41.5419 582.522 32.4816 577.376 26.2426C572.23 19.9839 564.74 16.8644 554.944 16.8644H541.652V16.8445Z" fill="black"/>
<path d="M643.123 110.806H624.207V1.52539H643.123V110.806Z" fill="black"/>
<path d="M743.248 16.8445H709.172V110.806H690.336V16.8445H656.559V1.52539H743.248V16.8445Z" fill="black"/>
<path d="M777.619 110.806H758.703V1.52539H777.619V110.806Z" fill="black"/>
<path d="M888.171 59.0267C888.171 69.7362 886.323 79.1343 882.608 87.2012C878.912 95.2879 873.607 101.487 866.732 105.819C859.858 110.15 851.93 112.316 842.969 112.316C834.008 112.316 826.219 110.15 819.285 105.819C812.35 101.487 807.006 95.3277 803.23 87.3204C799.455 79.3131 797.528 70.074 797.488 59.6228V53.4634C797.488 42.8135 799.376 33.3955 803.151 25.2491C806.926 17.1028 812.251 10.844 819.146 6.53238C826.04 2.22077 833.928 0.0351562 842.83 0.0351562C851.731 0.0351562 859.639 2.18102 866.514 6.45289C873.388 10.7248 878.713 16.8842 882.469 24.9114C886.224 32.9385 888.131 42.277 888.171 52.9468V59.0267ZM869.176 53.3243C869.176 41.224 866.891 31.9252 862.302 25.4677C857.732 19.0102 851.234 15.7914 842.83 15.7914C834.425 15.7914 828.206 19.0102 823.577 25.428C818.947 31.8656 816.583 40.9458 816.483 52.7083V59.0068C816.483 71.0078 818.828 80.3066 823.497 86.8436C828.166 93.4004 834.663 96.6788 842.969 96.6788C851.274 96.6788 857.831 93.4799 862.361 87.082C866.891 80.6841 869.156 71.3257 869.156 59.0068V53.3044L869.176 53.3243Z" fill="black"/>
<path d="M993.779 110.806H974.784L926.065 33.2763V110.806H907.07V1.52539H926.065L974.924 79.3529V1.52539H993.76V110.806H993.779Z" fill="black"/>
</svg>
