<svg width="994" height="113" viewBox="0 0 994 113" fill="none" xmlns="http://www.w3.org/2000/svg">
<path d="M87.1085 110.806H68.1931V62.3251H19.3348V110.806H0.339844V1.52539H19.3348V47.0059H68.1931V1.52539H87.1085V110.806Z" fill="white"/>
<path d="M172.07 85.3534H129.729L120.867 110.806H101.117L142.405 1.52539H159.433L200.781 110.806H180.971L172.03 85.3534H172.07ZM135.074 70.0343H166.745L150.909 24.6928L135.074 70.0343Z" fill="white"/>
<path d="M232.19 95.6456H281.804V110.806H213.195V1.52539H232.19V95.6456Z" fill="white"/>
<path d="M378.769 59.0267C378.769 69.7362 376.921 79.1343 373.205 87.2012C369.51 95.2879 364.205 101.487 357.33 105.819C350.455 110.15 342.527 112.316 333.566 112.316C324.605 112.316 316.817 110.15 309.882 105.819C302.948 101.487 297.603 95.3277 293.828 87.3204C290.053 79.3131 288.126 70.074 288.086 59.6228V53.4634C288.086 42.8135 289.973 33.3955 293.749 25.2491C297.524 17.1028 302.849 10.844 309.743 6.53238C316.638 2.22077 324.526 0.0351562 333.427 0.0351562C342.329 0.0351562 350.237 2.18102 357.111 6.45289C363.986 10.7248 369.311 16.8842 373.066 24.9114C376.822 32.9385 378.729 42.277 378.769 52.9468V59.0267ZM359.774 53.3243C359.774 41.224 357.489 31.9252 352.899 25.4677C348.329 19.0102 341.832 15.7914 333.427 15.7914C325.023 15.7914 318.804 19.0102 314.174 25.428C309.545 31.8656 307.18 40.9458 307.081 52.7083V59.0068C307.081 71.0078 309.425 80.3066 314.095 86.8436C318.764 93.4004 325.261 96.6788 333.566 96.6788C341.872 96.6788 348.429 93.4799 352.959 87.082C357.489 80.6841 359.754 71.3257 359.754 59.0068V53.3044L359.774 53.3243Z" fill="white"/>
<path d="M499.832 62.027H454.948V95.6456H507.403V110.806H435.953V1.52539H506.886V16.8445H454.948V47.0258H499.832V62.0469V62.027Z" fill="white"/>
<path d="M522.879 110.806V1.52539H555.147C564.803 1.52539 573.367 3.67126 580.857 7.98287C588.328 12.2945 594.13 18.3943 598.223 26.3022C602.316 34.2102 604.383 43.2705 604.383 53.4634V58.9473C604.383 69.2991 602.316 78.4191 598.183 86.2674C594.051 94.1157 588.169 100.176 580.54 104.428C572.91 108.68 564.167 110.806 554.312 110.806H522.859H522.879ZM541.874 16.8445V95.6456H554.253C564.207 95.6456 571.857 92.5262 577.182 86.3072C582.507 80.0682 585.229 71.1271 585.328 59.4837V53.4038C585.328 41.5419 582.745 32.4816 577.599 26.2426C572.453 19.9839 564.962 16.8644 555.167 16.8644H541.874V16.8445Z" fill="white"/>
<path d="M643.345 110.806H624.43V1.52539H643.345V110.806Z" fill="white"/>
<path d="M743.463 16.8445H709.387V110.806H690.551V16.8445H656.773V1.52539H743.463V16.8445Z" fill="white"/>
<path d="M777.837 110.806H758.922V1.52539H777.837V110.806Z" fill="white"/>
<path d="M888.39 59.0267C888.39 69.7362 886.542 79.1343 882.827 87.2012C879.131 95.2879 873.826 101.487 866.951 105.819C860.076 110.15 852.149 112.316 843.188 112.316C834.227 112.316 826.438 110.15 819.504 105.819C812.569 101.487 807.224 95.3277 803.449 87.3204C799.674 79.3131 797.747 70.074 797.707 59.6228V53.4634C797.707 42.8135 799.595 33.3955 803.37 25.2491C807.145 17.1028 812.47 10.844 819.364 6.53238C826.259 2.22077 834.147 0.0351562 843.048 0.0351562C851.95 0.0351562 859.858 2.18102 866.733 6.45289C873.607 10.7248 878.932 16.8842 882.687 24.9114C886.443 32.9385 888.35 42.277 888.39 52.9468V59.0267ZM869.395 53.3243C869.395 41.224 867.11 31.9252 862.52 25.4677C857.95 19.0102 851.453 15.7914 843.048 15.7914C834.644 15.7914 828.425 19.0102 823.795 25.428C819.166 31.8656 816.801 40.9458 816.702 52.7083V59.0068C816.702 71.0078 819.047 80.3066 823.716 86.8436C828.385 93.4004 834.882 96.6788 843.188 96.6788C851.493 96.6788 858.05 93.4799 862.58 87.082C867.11 80.6841 869.375 71.3257 869.375 59.0068V53.3044L869.395 53.3243Z" fill="white"/>
<path d="M994.002 110.806H975.007L926.288 33.2763V110.806H907.293V1.52539H926.288L975.146 79.3529V1.52539H993.982V110.806H994.002Z" fill="white"/>
</svg>
