<?xml version="1.0" encoding="UTF-8"?><svg id="LOGOS" xmlns="http://www.w3.org/2000/svg" viewBox="0 0 500 500"><path d="m43.57,273.15h-9.52v-24.4H9.46v24.4H-.1v-55h9.56v22.89h24.59v-22.89h9.52v55Z"/><path d="m86.33,260.34h-21.31l-4.46,12.81h-9.94l20.78-55h8.57l20.81,55h-9.97l-4.5-12.81Zm-18.62-7.71h15.94l-7.97-22.82-7.97,22.82Z"/><path d="m116.58,265.52h24.97v7.63h-34.53v-55h9.56v47.37Z"/><path d="m190.36,247.08c0,5.39-.93,10.12-2.8,14.18-1.86,4.07-4.53,7.19-7.99,9.37-3.46,2.18-7.45,3.27-11.96,3.27s-8.43-1.09-11.92-3.27c-3.49-2.18-6.18-5.28-8.08-9.31-1.9-4.03-2.87-8.68-2.89-13.94v-3.1c0-5.36.95-10.1,2.85-14.2,1.9-4.1,4.58-7.25,8.05-9.42s7.44-3.27,11.92-3.27,8.46,1.08,11.92,3.23,6.14,5.25,8.03,9.29c1.89,4.04,2.85,8.74,2.87,14.11v3.06Zm-9.56-2.87c0-6.09-1.15-10.77-3.46-14.02-2.3-3.25-5.57-4.87-9.8-4.87s-7.36,1.62-9.69,4.85c-2.33,3.24-3.52,7.81-3.57,13.73v3.17c0,6.04,1.18,10.72,3.53,14.01,2.35,3.3,5.62,4.95,9.8,4.95s7.48-1.61,9.76-4.83c2.28-3.22,3.42-7.93,3.42-14.13v-2.87Z"/><path d="m251.29,248.59h-22.59v16.92h26.4v7.63h-35.96v-55h35.7v7.71h-26.14v15.19h22.59v7.56Z"/><path d="m262.89,273.15v-55h16.24c4.86,0,9.17,1.08,12.94,3.25,3.76,2.17,6.68,5.24,8.74,9.22,2.06,3.98,3.1,8.54,3.1,13.67v2.76c0,5.21-1.04,9.8-3.12,13.75-2.08,3.95-5.04,7-8.88,9.14-3.84,2.14-8.24,3.21-13.2,3.21h-15.83Zm9.56-47.29v39.66h6.23c5.01,0,8.86-1.57,11.54-4.7,2.68-3.14,4.05-7.64,4.1-13.5v-3.06c0-5.97-1.3-10.53-3.89-13.67-2.59-3.15-6.36-4.72-11.29-4.72h-6.69Z"/><path d="m323.52,273.15h-9.52v-55h9.52v55Z"/><path d="m373.91,225.85h-17.15v47.29h-9.48v-47.29h-17v-7.71h43.63v7.71Z"/><path d="m391.21,273.15h-9.52v-55h9.52v55Z"/><path d="m446.85,247.08c0,5.39-.93,10.12-2.8,14.18-1.86,4.07-4.53,7.19-7.99,9.37-3.46,2.18-7.45,3.27-11.96,3.27s-8.43-1.09-11.92-3.27c-3.49-2.18-6.18-5.28-8.08-9.31-1.9-4.03-2.87-8.68-2.89-13.94v-3.1c0-5.36.95-10.1,2.85-14.2,1.9-4.1,4.58-7.25,8.05-9.42s7.44-3.27,11.92-3.27,8.46,1.08,11.92,3.23,6.14,5.25,8.03,9.29c1.89,4.04,2.85,8.74,2.87,14.11v3.06Zm-9.56-2.87c0-6.09-1.15-10.77-3.46-14.02-2.3-3.25-5.57-4.87-9.8-4.87s-7.36,1.62-9.69,4.85c-2.33,3.24-3.52,7.81-3.57,13.73v3.17c0,6.04,1.18,10.72,3.53,14.01,2.35,3.3,5.62,4.95,9.8,4.95s7.48-1.61,9.76-4.83c2.28-3.22,3.42-7.93,3.42-14.13v-2.87Z"/><path d="m500,273.15h-9.56l-24.52-39.02v39.02h-9.56v-55h9.56l24.59,39.17v-39.17h9.48v55Z"/></svg>