<svg width="420" height="420" viewBox="0 0 420 420" fill="none" xmlns="http://www.w3.org/2000/svg">
<path fill-rule="evenodd" clip-rule="evenodd" d="M91.6104 285.289C96.2388 291.077 141.952 350.515 210 350.515C259.476 350.515 303.106 324.719 328.163 285.894L211.915 241.399V214.183L327.264 279.888C330.044 281.291 330.985 280.585 328.423 278.485L226.565 204.17L236.569 198.584L332.606 278.494C344.358 257.578 350.532 233.999 350.515 209.983C350.515 133.703 289.178 71.274 213.276 69.5184L234.704 193.687L210.974 207.64L209.647 71.232C209.647 69.6108 208.488 69.6108 208.244 71.232L195.14 200.197L185.371 194.376L205.271 69.5604C130.057 72.0636 69.468 134.165 69.468 209.983C69.4512 233.713 75.474 257.065 86.9904 277.805L182.566 198.332L192.57 204.154L90.7704 278.376C87.99 280.241 88.6704 281.156 91.9296 279.535L207.463 213.923V241.139L92.1396 285.104C91.3836 285.382 92.2152 285.046 91.602 285.272L91.6104 285.289ZM210 62.4456C291.278 62.4456 357.554 128.722 357.554 210C357.554 291.278 291.278 357.554 210 357.554C128.722 357.554 62.4456 291.278 62.4456 210C62.4456 128.722 128.722 62.4456 210 62.4456ZM210 412.448C321.51 412.448 412.448 321.502 412.448 210C412.448 98.4984 321.493 7.5516 210 7.5516C98.5068 7.5516 7.5516 98.4984 7.5516 210C7.5516 321.502 98.4984 412.448 210 412.448ZM210 420C325.66 420 420 325.66 420 210C420 94.3404 325.66 0 210 0C94.3404 0 0 94.3404 0 210C0 325.66 94.3404 420 210 420ZM383.317 129.276C382.914 128.428 381.931 128.411 381.662 129.074C380.705 132.258 381.108 134.711 382.864 138.491C386.291 145.975 389.18 153.67 391.213 161.742C391.507 162.641 392.171 162.792 392.708 162.254C394.699 158.55 394.002 153.577 391.364 146.773C388.954 140.843 386.333 134.98 383.334 129.268L383.317 129.276ZM366.584 170.125C367.139 170.327 367.744 169.848 367.542 169.075L360.024 148.932C358.806 145.748 356.336 143.606 353.724 143.002C352.968 142.783 352.363 143.405 352.75 144.018C355.034 149.176 357.193 154.409 359.125 159.718C360.948 164.413 363.544 168.706 366.584 170.125ZM401.537 201.004C401.478 200.063 400.596 199.66 400.1 200.155C397.967 202.717 397.37 205.111 397.505 209.294C397.706 217.51 397.354 225.733 396.068 233.965C395.993 234.906 396.547 235.292 397.244 235.015C400.546 232.403 401.848 227.531 402.091 220.256C402.15 213.847 402.058 207.43 401.537 201.004ZM370.104 232C370.549 232.42 371.28 232.201 371.398 231.412L372.389 209.924C372.54 206.514 371.095 203.582 368.928 202.003C368.323 201.508 367.508 201.835 367.618 202.541C367.693 208.177 367.618 213.839 367.307 219.475C367.156 224.524 367.861 229.496 370.104 232.008V232ZM390.373 275.486C390.726 274.621 390.079 273.882 389.416 274.126C386.408 275.562 384.88 277.519 383.258 281.366C380.033 288.943 376.278 296.251 371.683 303.198C371.221 304.03 371.557 304.618 372.313 304.651C376.404 303.635 379.613 299.771 382.855 293.227C385.602 287.423 388.181 281.543 390.373 275.486ZM348.911 290.615C349.129 291.169 349.885 291.295 350.33 290.615C353.606 284.239 356.891 277.864 360.167 271.488C361.712 268.447 361.62 265.171 360.318 262.844C359.965 262.147 359.1 262.105 358.898 262.786C356.63 267.96 354.178 273.05 351.582 278.057C349.331 282.568 347.894 287.398 348.911 290.606V290.615ZM366.744 128.444C366.87 129.293 366.173 129.864 365.568 129.478C360.133 125.605 357.202 120.817 356.429 113.996C356.429 113.131 357.185 112.837 357.924 113.224C363.308 117.482 366.047 122.212 366.752 128.444H366.744ZM350.179 339.99C350.826 339.31 350.49 338.386 349.793 338.369C346.458 338.587 344.324 339.839 341.393 342.812C335.588 348.65 329.398 354.068 322.577 358.823C321.838 359.411 321.93 360.091 322.61 360.41C326.777 360.982 331.195 358.571 336.63 353.707C341.326 349.339 345.895 344.828 350.171 339.998L350.179 339.99ZM306.071 338.722C306.071 339.31 306.734 339.713 307.398 339.234L323.593 325.105C326.155 322.837 327.281 319.78 326.928 317.125C326.852 316.336 326.08 315.983 325.634 316.554C321.619 320.536 317.47 324.366 313.194 328.054C309.414 331.422 306.306 335.37 306.062 338.722H306.071ZM384.527 174.107C385.207 173.662 385.854 173.275 386.425 172.561C388.08 170.167 387.937 166.648 386.845 162.868C384.283 155.224 381.923 147.924 378.739 140.557C377.026 136.836 376.102 131.292 376.9 128.562C378.118 124.303 380.016 120.271 380.957 116.147C381.31 115.097 382.796 115.298 383.611 116.567C388.399 124.639 392.398 133.056 396.01 141.641C400.285 151.15 400.453 161.372 396.211 168.932C393.523 173.351 389.248 177.408 385.577 179.894C385.249 180.113 385.064 180.499 385.132 180.886C385.518 183.725 386.014 186.598 386.35 189.487C386.408 190.21 386.954 190.277 387.274 190.042C389.802 188.11 392.062 185.732 394.313 183.246C394.792 182.784 394.96 182.087 394.758 181.44C394.061 178.861 395.59 176.19 398.168 175.51C398.572 175.4 399 175.342 399.42 175.342C402.074 175.342 404.25 177.517 404.25 180.172C404.25 182.826 402.074 185.002 399.403 185.002C398.891 185.002 398.387 184.926 397.908 184.758C397.396 184.573 396.547 184.758 396.119 185.27C394.162 187.093 392.272 189.235 390.558 191.226C388.97 193.124 388.122 195.426 387.626 197.753C387.299 199.282 387.274 200.365 387.349 201.902C387.937 215.334 386.98 228.766 384.493 241.979C384.384 242.424 384.619 242.768 384.955 242.718C385.82 242.592 386.652 242.348 387.458 241.996C389.911 240.45 391.163 237.149 391.642 233.243C392.288 225.212 392.986 217.56 392.952 209.53C392.843 205.439 394.17 199.97 395.959 197.778C398.74 194.351 402.074 191.369 404.561 187.942C405.3 187.093 406.585 187.883 406.829 189.378C408.064 198.685 408.433 207.984 408.374 217.308C408.576 227.741 404.704 237.208 397.849 242.474C393.649 245.498 388.122 247.54 383.754 248.388C383.443 248.447 383.057 248.758 382.981 249.11C382.376 251.748 381.688 254.36 380.974 256.981C380.68 257.83 380.957 258.367 381.898 258.065C385.064 257.141 388.534 255.872 391.406 254.31C392.011 254.016 392.364 253.478 392.423 252.748C392.456 252.328 392.532 251.899 392.683 251.496C393.565 248.993 396.312 247.666 398.84 248.531C401.369 249.413 402.688 252.176 401.806 254.688C400.924 257.216 398.135 258.535 395.632 257.636C395.153 257.468 394.708 257.233 394.304 256.914C393.884 256.561 393.011 256.452 392.44 256.805C389.987 257.872 387.5 259.258 385.216 260.602C382.948 261.946 380.352 264.415 378.437 266.868C377.588 267.952 377.236 268.674 376.782 269.942C372.103 282.66 365.963 294.781 358.504 306.096C358.336 306.34 358.378 306.65 358.672 306.743C359.26 306.869 359.873 306.928 360.511 306.928C363.384 306.541 365.896 304.055 367.954 300.72C371.876 293.681 375.69 287.011 378.991 279.695C380.596 275.915 384.073 271.496 386.618 270.262C390.583 268.304 394.834 266.986 398.521 264.877C399.538 264.415 400.386 265.667 399.991 267.128C397.244 276.1 393.708 284.726 389.802 293.168C385.652 302.728 378.193 309.75 369.751 311.69C365.03 312.614 359.621 312.295 355.412 311.413C355.118 311.338 354.766 311.489 354.623 311.69C352.741 314.303 350.792 316.89 348.785 319.41C348.583 319.687 348.524 319.948 348.953 320.015C352.363 320.46 356.286 320.737 359.73 320.418C360.394 320.401 360.998 319.998 361.276 319.385C362.51 317.008 365.442 316.084 367.819 317.344C368.189 317.545 368.542 317.789 368.852 318.066C370.81 319.872 370.936 322.946 369.113 324.904C367.29 326.861 364.232 326.987 362.275 325.164C361.906 324.811 361.578 324.408 361.334 323.963C361.074 323.484 360.343 323.039 359.68 323.114C357.008 323.114 354.169 323.408 351.557 323.702C349.381 323.98 346.71 324.862 344.316 326.004C342.602 326.819 342.031 327.365 340.78 328.734C331.22 339.108 320.46 348.306 308.717 356.135C308.456 356.353 308.406 356.689 308.641 356.891C309.322 357.445 309.968 357.815 310.817 358.159C313.639 358.882 316.882 357.496 320.032 355.135C326.281 350.053 332.287 345.257 338.05 339.679C340.939 336.764 345.803 333.95 348.625 333.724C353.027 333.371 357.487 333.707 361.687 333.136C362.796 333.077 363.124 334.555 362.225 335.773C356.345 343.106 349.877 349.793 343.115 356.21C335.723 363.56 326.197 367.324 317.654 366.013C312.572 365.056 307.264 362.477 303.635 359.915C303.374 359.73 303.047 359.73 302.786 359.915C299.914 361.662 296.999 363.342 294.05 364.93C293.63 365.19 293.328 365.039 293.152 364.619L292.32 362.981C292.118 362.519 292.303 362.149 292.723 361.931C295.562 360.402 298.36 358.798 301.106 357.101C301.417 356.899 301.51 356.622 301.459 356.345C300.686 352.363 300.67 349.104 300.871 344.677C301.022 338.243 302.618 331.691 306.659 327.743C312.522 322.342 317.159 319.326 320.351 315.991C323.098 313.194 325.214 310.43 327.625 307.457C328.289 306.734 329.524 306.734 329.944 307.843C334.757 319.595 331.439 327.096 324.324 333.127C319.309 337.252 314.21 341.292 309.196 345.416C306.944 347.533 305.878 350.171 306.264 353.01C306.298 353.413 306.592 353.615 306.852 353.43C318.368 345.744 328.927 336.714 338.327 326.55C339.503 325.282 339.763 324.374 340.15 323.047C341.216 318.956 341.351 314.756 340.024 310.372C339.856 309.742 339.175 309.196 338.621 309.137C335.966 308.784 334.11 306.373 334.438 303.719C334.513 303.223 334.639 302.728 334.858 302.266C336.017 299.872 338.915 298.838 341.309 299.998C343.703 301.14 344.736 304.055 343.577 306.449C343.392 306.852 343.157 307.205 342.854 307.516C342.392 307.994 342.25 308.717 342.485 309.338C343.35 312.228 344.257 315.05 345.492 317.646C345.568 317.864 345.82 317.864 345.954 317.68C347.911 315.244 349.675 312.757 351.607 310.237C351.775 310.052 351.733 309.666 351.607 309.448C349.079 305.726 347.794 302.56 346.248 298.082C343.997 292.06 343.081 285.365 345.366 280.207C348.81 273.042 352.019 268.506 353.749 264.23C355.261 260.618 356.219 257.267 357.361 253.621C357.714 252.722 358.873 252.26 359.663 253.126C368.474 262.248 368.172 270.463 363.787 278.704C360.654 284.399 357.395 290.018 354.278 295.714C352.842 298.813 352.968 301.997 354.866 304.668C355.068 304.962 355.362 304.945 355.547 304.702C364.056 293.538 369.516 280.543 374.228 267.263C374.522 266.414 374.581 265.532 374.43 264.575C373.783 260.408 372.221 256.519 369.272 253.042C368.869 252.529 368.021 252.302 367.5 252.47C364.938 253.21 362.25 251.731 361.511 249.169C361.36 248.674 361.309 248.153 361.326 247.657C361.418 245.003 363.686 242.903 366.341 242.995C369.012 243.104 371.095 245.356 370.986 248.027C370.969 248.447 370.894 248.875 370.768 249.278C370.549 249.976 370.675 250.589 371.137 251.101C372.91 253.218 374.69 255.226 376.606 257.015C377.101 257.46 377.471 257.292 377.639 256.57C378.412 253.882 379.109 251.152 379.739 248.405C379.848 248.077 379.63 247.666 379.386 247.464C376.085 245.33 373.75 243.096 370.742 239.963C366.19 235.41 362.578 229.715 362.502 224.078C362.653 216.115 363.678 210.68 363.493 206.06C363.367 202.138 362.846 198.694 362.351 194.897C362.292 193.922 363.14 193.015 364.232 193.494C376.043 198.139 379.176 205.733 378.622 215.032C378.143 221.5 377.513 227.968 377.034 234.452C377.017 237.569 378.193 240.181 380.554 241.878C380.906 242.155 381.108 241.844 381.158 241.55C383.334 230 384.308 218.257 384.107 206.522C383.981 199.912 378.504 192.646 372.96 189.37C372.406 189.017 371.54 189.076 371.095 189.403C368.92 190.949 365.896 190.436 364.35 188.244C364.056 187.824 363.838 187.379 363.686 186.883C362.914 184.338 364.333 181.633 366.87 180.844C369.432 180.054 372.137 181.49 372.91 184.052C373.036 184.456 373.111 184.884 373.111 185.304C373.128 186.043 373.464 186.572 374.069 186.908C376.866 188.563 379.655 190.117 382.528 191.218C382.99 191.386 383.158 191.033 383.082 190.495C382.754 187.438 382.326 184.38 381.814 181.339C381.738 181.028 381.461 180.785 381.15 180.709C377.261 180.029 374.237 178.903 370.264 177.19C364.291 174.796 358.73 170.982 356.446 165.799C353.464 158.432 352.279 153.014 350.272 148.831C348.634 145.278 346.769 142.304 344.854 139.012C344.408 138.146 344.854 136.97 346.03 136.987C358.722 136.618 364.585 142.372 367.718 151.158C369.818 157.29 371.776 163.506 373.876 169.638C375.094 172.528 377.227 174.485 380.1 175.09C380.428 175.165 380.579 174.779 380.52 174.409C378.176 163.187 374.732 152.242 370.222 141.725C369.356 139.566 368.138 138.205 366.257 136.735C356.378 128.738 351.145 121.64 350.112 105.412C350.078 104.378 350.65 104.194 351.548 104.672C362.771 110.124 373.842 115.71 372.313 134.543C372.128 136.886 372.28 138.323 373.254 140.473C377.857 151.2 381.377 162.364 383.754 173.788C383.813 174.208 384.174 174.376 384.493 174.157L384.527 174.107ZM319.074 83.7312L325.265 89.1828C323.585 91.434 322.778 93.534 322.871 95.5248C322.963 97.4988 323.862 99.4308 325.618 101.312C327.457 103.303 329.288 104.412 331.069 104.63C332.85 104.849 334.312 104.446 335.437 103.396C336.16 102.715 336.58 101.942 336.672 101.035C336.798 100.136 336.546 98.994 335.933 97.5912C335.513 96.6336 334.421 94.5672 332.674 91.4172C330.406 87.3432 329.263 84.084 329.213 81.648C329.137 78.204 330.322 75.3648 332.732 73.0968C334.278 71.6436 336.143 70.7364 338.335 70.35C340.511 69.9804 342.72 70.2744 344.988 71.274C347.239 72.2904 349.465 73.9452 351.641 76.2888C355.219 80.1192 357.076 83.79 357.202 87.2928C357.328 90.7956 356.026 93.9036 353.312 96.6168L347.29 90.7032C348.617 88.9728 349.205 87.3516 349.096 85.8396C348.986 84.3276 348.104 82.7064 346.483 80.976C344.803 79.1868 343.148 78.12 341.452 77.7924C340.435 77.5488 339.385 77.8512 338.654 78.5652C337.932 79.2456 337.604 80.1276 337.663 81.2196C337.739 82.6056 338.806 85.1256 340.906 88.7964C342.989 92.4672 344.333 95.3568 344.921 97.4904C345.492 99.624 345.509 101.732 344.954 103.757C344.4 105.798 343.148 107.722 341.233 109.502C339.486 111.124 337.31 112.207 334.967 112.636C332.531 113.081 330.12 112.787 327.726 111.695C325.332 110.611 322.879 108.746 320.41 106.092C316.814 102.22 314.941 98.448 314.79 94.7016C314.588 90.9804 316.042 87.3096 319.082 83.7396L319.074 83.7312ZM284.357 75.8604L308.902 42.084L333.942 60.27L329.792 65.982L311.573 52.7352L306.138 60.2196L323.089 72.5424L318.965 78.2376L302.014 65.9148L295.327 75.1128L314.194 88.8216L310.069 94.5168L284.365 75.8688L284.357 75.8604ZM272.16 33.096L261.803 58.7244L267.624 61.0848C269.8 61.9668 271.438 62.4876 272.504 62.6304C273.89 62.832 275.159 62.7228 276.301 62.3028C277.444 61.8828 278.62 60.9 279.854 59.388C281.072 57.876 282.307 55.608 283.525 52.6092C284.743 49.6272 285.39 47.208 285.516 45.402C285.625 43.5792 285.407 42.0336 284.819 40.7568C284.231 39.4632 283.273 38.3796 281.929 37.4808C280.938 36.7836 278.855 35.8008 275.663 34.5156L272.16 33.096ZM266.986 23.3856L281.266 29.1564C284.491 30.4668 286.826 31.7016 288.338 32.8776C290.312 34.4232 291.824 36.4728 292.723 38.808C293.664 41.1684 294.05 43.764 293.899 46.5612C293.731 49.3836 292.925 52.584 291.463 56.238C290.17 59.4216 288.666 62.0088 286.927 63.9912C284.827 66.4272 282.526 68.1408 280.014 69.1488C278.116 69.9216 275.89 70.2156 273.269 70.014C271.337 69.8628 268.901 69.1992 266.011 68.04L251.311 62.1096L266.977 23.3772L266.986 23.3856ZM218.4 56.7588L225.271 15.5736L255.805 20.6808L254.646 27.6444L232.428 23.94L230.899 33.0624L251.572 36.5064L250.412 43.4364L229.74 39.9924L227.858 51.198L250.858 55.0284L249.698 61.9752L218.408 56.7588H218.4ZM209.664 41.37L218.03 43.2348C217.182 47.88 215.393 51.4332 212.688 53.9028C209.983 56.3556 206.388 57.7752 201.928 58.1784C196.4 58.6572 191.705 57.162 187.816 53.718C183.926 50.2572 181.7 45.2424 181.129 38.6988C180.524 31.7688 181.852 26.2416 185.094 22.1004C188.336 17.9508 192.872 15.6324 198.694 15.12C203.776 14.6748 208.051 15.8172 211.478 18.5472C213.52 20.1516 215.166 22.5792 216.418 25.8216L208.27 28.5264C207.589 26.4096 206.43 24.7884 204.75 23.6796C203.07 22.5708 201.138 22.1172 198.912 22.3188C195.838 22.596 193.418 23.9232 191.688 26.3004C189.958 28.6776 189.311 32.34 189.756 37.3044C190.218 42.5544 191.486 46.2252 193.57 48.2832C195.653 50.3496 198.215 51.2484 201.239 50.988C203.465 50.7864 205.33 49.9212 206.825 48.3504C208.295 46.8048 209.236 44.4612 209.681 41.37H209.664ZM152.233 42.6048L158.222 40.8912C162.112 39.7656 164.489 38.9172 165.371 38.3124C166.236 37.7076 166.824 36.9264 167.16 35.952C167.471 34.9944 167.471 33.9108 167.126 32.7096C166.74 31.3488 166.06 30.366 165.102 29.7444C164.144 29.1228 162.985 28.896 161.599 29.0472C160.919 29.1564 158.945 29.6772 155.644 30.6096L149.327 32.4156L152.242 42.6048H152.233ZM150.78 68.1072L139.264 27.972L156.324 23.0748C160.616 21.84 163.825 21.3276 165.976 21.4704C168.134 21.6384 170.05 22.4616 171.746 23.9736C173.443 25.4856 174.619 27.4176 175.3 29.7948C176.165 32.802 175.98 35.5656 174.787 38.0352C173.586 40.488 171.284 42.4956 167.916 44.0076C169.957 44.5452 171.73 45.2424 173.225 46.1412C174.72 47.04 176.87 48.7788 179.693 51.3408L186.841 57.7752L177.148 60.5556L168.781 53.4996C165.799 50.9712 163.825 49.4256 162.826 48.8208C161.834 48.2328 160.852 47.922 159.911 47.8464C158.97 47.7876 157.567 48.0312 155.694 48.5688L154.056 49.0308L158.869 65.7804L150.78 68.124V68.1072ZM122.405 84.6552L101.531 48.5016L128.344 33.0204L131.88 39.1356L112.367 50.3916L116.995 58.4052L135.148 47.922L138.667 54.0036L120.515 64.4868L126.193 74.3232L146.387 62.6556L149.906 68.754L122.413 84.6384L122.405 84.6552ZM91.6524 112.493L62.6472 82.4544L71.7276 73.6848L96.9696 88.9056L82.5636 63.2184L91.6692 54.432L120.674 84.4704L115.038 89.9052L92.2068 66.2676L109.066 95.676L103.228 101.312L74.4492 83.4036L97.2804 107.041L91.6608 112.493H91.6524ZM37.2624 129.276C37.6656 128.428 38.6484 128.411 38.9172 129.074C39.8748 132.258 39.4716 134.711 37.716 138.491C34.2888 145.975 31.3992 153.67 29.3496 161.742C29.0556 162.641 28.392 162.792 27.8544 162.254C25.8636 158.55 26.5608 153.577 29.1984 146.773C31.6344 140.843 34.2468 134.98 37.254 129.268L37.2624 129.276ZM53.9952 170.125C53.4408 170.327 52.836 169.848 53.0376 169.075L60.5556 148.932C61.7736 145.748 64.2432 143.606 66.8556 143.002C67.6116 142.783 68.2164 143.405 67.8468 144.018C65.5452 149.176 63.4284 154.409 61.4712 159.718C59.6484 164.413 57.0528 168.706 53.9868 170.125H53.9952ZM19.0596 201.004C19.0932 200.063 20.0004 199.66 20.496 200.155C22.6296 202.717 23.226 205.111 23.0916 209.294C22.89 217.51 23.2428 225.733 24.528 233.965C24.6036 234.906 24.0492 235.292 23.3688 235.015C20.0676 232.403 18.7656 227.531 18.522 220.256C18.4296 213.847 18.522 207.43 19.0596 201.004ZM50.4924 232C50.0724 232.42 49.3164 232.201 49.1988 231.412L48.2076 209.924C48.0564 206.514 49.5012 203.582 51.6684 202.003C52.2732 201.508 53.088 201.835 52.9788 202.541C52.9032 208.177 52.9788 213.839 53.2896 219.475C53.4408 224.524 52.7352 229.496 50.4924 232.008V232ZM30.2064 275.486C29.8536 274.621 30.5004 273.882 31.164 274.126C34.1712 275.562 35.7 277.519 37.3212 281.366C40.5468 288.943 44.3016 296.251 48.8964 303.198C49.3584 304.03 49.0224 304.618 48.2664 304.651C44.1756 303.635 40.9668 299.771 37.7244 293.227C34.9776 287.423 32.3988 281.543 30.2064 275.486ZM71.6856 290.615C71.4672 291.169 70.7112 291.295 70.266 290.615L60.4296 271.488C58.884 268.447 58.9764 265.171 60.2784 262.844C60.6312 262.147 61.4964 262.105 61.698 262.786C63.966 267.96 66.3936 273.05 69.0144 278.057C71.2656 282.568 72.702 287.398 71.6856 290.606V290.615ZM53.8524 128.444C53.7264 129.293 54.4236 129.864 55.0284 129.478C60.48 125.605 63.3948 120.817 64.1676 113.996C64.1844 113.131 63.4116 112.837 62.6976 113.224C57.2796 117.482 54.5328 122.212 53.8524 128.444ZM70.4004 339.99C69.7536 339.31 70.0896 338.386 70.7868 338.369C74.1048 338.587 76.2552 339.839 79.1868 342.812C84.9912 348.65 91.182 354.068 98.0028 358.823C98.742 359.411 98.6328 360.091 97.9692 360.41C93.8028 360.982 89.3844 358.571 83.9496 353.707C79.254 349.339 74.6844 344.828 70.4088 339.998L70.4004 339.99ZM114.534 338.722C114.534 339.31 113.87 339.713 113.207 339.234L96.9948 325.105C94.4328 322.837 93.3072 319.78 93.66 317.125C93.7356 316.336 94.5084 315.983 94.9536 316.554C98.9688 320.536 103.118 324.366 107.394 328.054C111.174 331.422 114.282 335.37 114.542 338.722H114.534ZM36.0444 174.107C35.364 173.662 34.7172 173.275 34.1628 172.561C32.508 170.167 32.6508 166.648 33.7428 162.868C36.3048 155.224 38.6652 147.924 41.8488 140.557C43.5624 136.836 44.4864 131.292 43.6884 128.562C42.4704 124.303 40.572 120.271 39.6312 116.147C39.2784 115.097 37.7916 115.298 36.9768 116.567C32.1888 124.639 28.1904 133.056 24.5784 141.641C20.3028 151.15 20.1348 161.372 24.3768 168.932C27.0648 173.351 31.3404 177.408 35.0112 179.894C35.3388 180.113 35.5236 180.499 35.4564 180.886C35.07 183.725 34.5744 186.598 34.2384 189.487C34.1796 190.21 33.6336 190.277 33.3144 190.042C30.8112 188.11 28.5264 185.732 26.2752 183.246C25.7964 182.784 25.6284 182.087 25.83 181.44C26.5272 178.861 24.9984 176.19 22.4196 175.51C22.0164 175.4 21.588 175.342 21.168 175.342C18.4968 175.342 16.338 177.517 16.338 180.172C16.338 182.826 18.5304 185.018 21.2016 185.002C21.714 185.002 22.218 184.926 22.6968 184.758C23.2092 184.573 24.0576 184.758 24.486 185.27C26.46 187.093 28.3332 189.235 30.0468 191.226C31.6344 193.124 32.4828 195.426 32.9784 197.753C33.306 199.282 33.3312 200.365 33.2556 201.902C32.6676 215.334 33.6252 228.766 36.1116 241.979C36.2208 242.424 35.9856 242.768 35.6664 242.718C34.8012 242.592 33.9696 242.348 33.1632 241.996C30.6936 240.45 29.4588 237.149 28.98 233.243C28.3332 225.212 27.636 217.56 27.6696 209.53C27.7788 205.439 26.4516 199.97 24.6456 197.778C21.8652 194.351 18.5304 191.369 16.044 187.942C15.3048 187.093 14.0196 187.883 13.776 189.378C12.5412 198.685 12.1716 207.984 12.2304 217.308C12.0288 227.741 15.9012 237.208 22.7556 242.474C26.9556 245.498 32.4828 247.54 36.8508 248.388C37.1616 248.447 37.548 248.758 37.6236 249.11C38.2284 251.748 38.9172 254.377 39.6312 256.981C39.9252 257.83 39.648 258.367 38.7072 258.065C35.5404 257.141 32.0712 255.872 29.1984 254.31C28.5936 254.016 28.2408 253.478 28.182 252.748C27.9804 250.076 25.6536 248.069 23.0076 248.27C22.5876 248.304 22.176 248.38 21.7728 248.531C19.2444 249.413 17.9256 252.176 18.8076 254.688C19.6896 257.216 22.4364 258.535 24.9648 257.653C25.4604 257.485 25.9224 257.233 26.3256 256.914C26.7456 256.561 27.6192 256.452 28.1904 256.805C30.6432 257.872 33.1296 259.258 35.4144 260.602C37.6824 261.946 40.278 264.415 42.1932 266.868C43.0416 267.952 43.3692 268.674 43.848 269.942C48.5268 282.66 54.642 294.798 62.1096 306.096C62.2776 306.34 62.2356 306.65 61.9416 306.743C61.3368 306.869 60.7236 306.944 60.102 306.928C57.2292 306.541 54.7176 304.055 52.6596 300.72C48.7368 293.681 44.9232 287.011 41.622 279.695C40.0176 275.915 36.54 271.496 33.9948 270.262C30.03 268.304 25.7796 266.986 22.0752 264.877C21.0588 264.415 20.2104 265.667 20.6052 267.128C23.352 276.1 26.8884 284.726 30.7944 293.168C34.944 302.728 42.4032 309.75 50.8452 311.69C55.566 312.614 60.9756 312.295 65.184 311.413C65.478 311.338 65.8308 311.489 65.9568 311.69C67.8384 314.303 69.7872 316.89 71.7948 319.41C71.9964 319.687 72.072 319.948 71.6268 320.015C68.2164 320.46 64.2936 320.737 60.8496 320.418C60.186 320.401 59.5812 319.998 59.304 319.385C58.0692 317.008 55.1376 316.084 52.7772 317.318C52.3908 317.52 52.038 317.764 51.7272 318.058C49.77 319.864 49.644 322.938 51.45 324.895C53.2728 326.852 56.3304 326.978 58.3044 325.156C58.674 324.803 58.9848 324.4 59.2452 323.954C59.5056 323.476 60.2616 323.03 60.9 323.106C63.5712 323.106 66.4104 323.4 69.0228 323.694C71.1984 323.971 73.8696 324.853 76.2636 325.996C77.9772 326.81 78.5484 327.356 79.8 328.726C89.3592 339.1 100.12 348.298 111.863 356.126C112.123 356.345 112.174 356.681 111.938 356.882C111.275 357.42 110.536 357.84 109.763 358.151C106.94 358.873 103.698 357.487 100.548 355.127C94.2984 350.045 88.2924 345.248 82.53 339.671C79.6572 336.756 74.7768 333.942 71.9544 333.715C67.5528 333.362 63.0924 333.698 58.8924 333.127C57.7836 333.068 57.456 334.547 58.3548 335.765C64.2348 343.098 70.7028 349.784 77.4648 356.202C84.8568 363.552 94.3824 367.315 102.925 366.005C108.007 365.047 113.316 362.468 116.945 359.906C117.205 359.722 117.533 359.722 117.793 359.906C120.666 361.654 123.581 363.334 126.546 364.921C126.966 365.182 127.268 365.03 127.445 364.61L128.276 362.972C128.478 362.51 128.293 362.141 127.873 361.922C125.034 360.394 122.237 358.789 119.49 357.092C119.179 356.891 119.087 356.614 119.137 356.336C119.91 352.355 119.927 349.096 119.725 344.669C119.574 338.234 117.978 331.682 113.938 327.734C108.074 322.333 103.438 319.318 100.229 315.983C97.482 313.186 95.3652 310.422 92.9544 307.448C92.2908 306.726 91.056 306.726 90.636 307.835C85.806 319.586 89.1408 327.088 96.2556 333.119C101.27 337.243 106.369 341.284 111.384 345.408C113.635 347.525 114.702 350.162 114.316 353.002C114.282 353.405 113.988 353.606 113.728 353.422C102.211 345.736 91.6356 336.706 82.2528 326.542C81.0768 325.273 80.8164 324.366 80.43 323.039C79.3632 318.948 79.2288 314.748 80.556 310.363C80.724 309.716 81.4044 309.187 81.9588 309.128C84.6132 308.776 86.4696 306.365 86.142 303.71C86.0664 303.198 85.9404 302.719 85.722 302.24C84.5628 299.846 81.69 298.813 79.2708 299.972C76.86 301.132 75.8436 304.004 77.0028 306.424C77.1876 306.827 77.4228 307.18 77.7 307.49C78.1788 308.045 78.3048 308.666 78.0864 309.313C77.2212 312.203 76.314 315.025 75.0792 317.621C75.0036 317.839 74.7516 317.839 74.6172 317.654C72.6852 315.218 70.896 312.732 68.964 310.212C68.796 310.027 68.838 309.641 68.964 309.422C71.4672 305.701 72.7776 302.534 74.3232 298.057C76.5744 292.034 77.49 285.34 75.2052 280.182C71.7612 273.017 68.5524 268.481 66.822 264.205C65.31 260.593 64.3524 257.242 63.21 253.596C62.8572 252.697 61.698 252.235 60.9084 253.1C52.08 262.223 52.3992 270.438 56.784 278.678C59.9172 284.374 63.1764 289.993 66.2928 295.688C67.7292 298.788 67.6032 301.972 65.7048 304.643C65.5032 304.937 65.226 304.92 65.0244 304.676C56.5152 293.513 51.0552 280.518 46.3428 267.238C46.0656 266.372 45.99 265.448 46.1412 264.55C46.788 260.383 48.3504 256.494 51.2988 253.016C51.702 252.504 52.5504 252.277 53.0712 252.445C55.6332 253.184 58.3212 251.706 59.0604 249.127C59.2116 248.632 59.262 248.136 59.2452 247.615C59.136 244.944 56.9016 242.861 54.2304 242.953C51.5592 243.062 49.476 245.314 49.5852 247.985C49.602 248.405 49.6776 248.833 49.8036 249.236C50.022 249.934 49.896 250.547 49.434 251.059C47.6616 253.176 45.8808 255.184 43.9656 256.973C43.47 257.418 43.1004 257.25 42.9324 256.528C42.1596 253.823 41.4624 251.11 40.8324 248.363C40.7232 248.035 40.9416 247.624 41.1852 247.422C44.4864 245.288 46.8216 243.054 49.8288 239.921C54.3816 235.368 57.9936 229.673 58.0692 224.036C57.918 216.073 56.8932 210.638 57.078 206.018C57.1872 202.096 57.7248 198.652 58.2036 194.855C58.2624 193.88 57.414 192.973 56.322 193.452C44.5116 198.097 41.3784 205.691 41.9496 214.99C42.4284 221.458 43.0584 227.926 43.5372 234.41C43.554 237.527 42.378 240.139 40.0176 241.836C39.6648 242.113 39.4632 241.802 39.4128 241.508C37.2372 229.958 36.2628 218.215 36.4644 206.48C36.5904 199.87 42.0672 192.604 47.6112 189.328C48.1656 188.975 49.0308 189.034 49.476 189.361C51.6516 190.907 54.6924 190.394 56.2212 188.202C56.5152 187.782 56.7336 187.337 56.8848 186.841C57.6744 184.296 56.238 181.591 53.7012 180.802C51.1392 180.029 48.4344 181.465 47.6616 184.027C47.5356 184.43 47.4768 184.859 47.46 185.262C47.4432 186.001 47.1072 186.53 46.5024 186.866C43.7052 188.521 40.9164 190.075 38.0436 191.176C37.5816 191.344 37.4136 190.991 37.4892 190.453C37.842 187.379 38.2452 184.321 38.7576 181.297C38.85 180.986 39.1104 180.743 39.4212 180.667C43.2936 179.987 46.3344 178.861 50.3076 177.148C56.28 174.754 61.8408 170.94 64.1256 165.757C67.1076 158.39 68.3088 152.972 70.2996 148.789C71.9376 145.236 73.7856 142.262 75.7176 138.97C76.1628 138.104 75.7176 136.928 74.5416 136.945C61.8492 136.576 55.986 142.33 52.8528 151.116C50.7528 157.248 48.7788 163.464 46.6788 169.596C45.4608 172.486 43.3272 174.443 40.4544 175.048C40.1268 175.123 39.9756 174.737 40.0344 174.367C42.378 163.145 45.822 152.2 50.3328 141.683C51.198 139.524 52.416 138.163 54.2724 136.693C64.1508 128.696 69.384 121.598 70.4172 105.37C70.4508 104.336 69.8796 104.152 68.9976 104.63C57.7752 110.082 46.704 115.668 48.2328 134.501C48.4176 136.844 48.2664 138.281 47.292 140.431C42.6888 151.158 39.1692 162.322 36.792 173.746C36.7752 174.208 36.4056 174.376 36.0696 174.149L36.0444 174.107ZM173.888 402.898L178.072 361.351L208.858 364.451L208.16 371.49L185.758 369.222L184.834 378.437L205.691 380.537L204.994 387.517L184.136 385.417L182.994 396.715L206.195 399.059L205.498 406.064L173.897 402.914L173.888 402.898ZM256.2 400.554L253.856 393.33L266.347 360.788L247.85 366.794L245.658 360.066L274.73 350.616L276.755 356.84L263.71 390.692L286.297 383.359L288.473 390.046L256.192 400.546L256.2 400.554ZM216.124 405.913L211.151 364.451L219.299 363.476L239.585 389.122L236.267 361.444L244.045 360.503L249.018 401.965L240.618 402.982L220.66 377.958L223.902 404.989L216.124 405.913ZM147.58 351.112L163.313 356.672C166.429 357.781 168.714 358.714 170.15 359.528C171.536 360.284 172.746 361.334 173.687 362.603C174.611 363.854 175.216 365.291 175.552 366.954C175.862 368.634 175.736 370.381 175.132 371.986C174.502 373.792 173.359 375.379 171.856 376.538C170.327 377.714 168.504 378.42 166.589 378.58C168.722 380.125 170.167 381.973 170.864 384.09C171.562 386.224 171.511 388.441 170.696 390.701C170.05 392.507 168.983 394.145 167.597 395.489C166.16 396.875 164.556 397.832 162.75 398.328C160.961 398.824 158.953 398.824 156.761 398.311C155.4 397.984 152.158 396.95 147.084 395.178L133.686 390.44L147.58 351.103V351.112ZM153.216 360.469L149.99 369.575L155.19 371.414C158.29 372.523 160.222 373.145 161.011 373.33C162.431 373.657 163.666 373.573 164.716 373.052C165.766 372.532 166.522 371.666 166.967 370.381C167.387 369.163 167.412 368.063 167.026 367.063C166.622 366.072 165.774 365.257 164.522 364.627C163.766 364.258 161.515 363.409 157.777 362.082L153.224 360.461L153.216 360.469ZM147.672 376.135L143.951 386.66L151.301 389.256C154.174 390.272 156.022 390.844 156.845 390.953C158.021 391.171 159.239 390.97 160.289 390.398C161.322 389.827 162.095 388.853 162.59 387.45C163.01 386.274 163.069 385.165 162.792 384.132C162.515 383.099 161.893 382.2 160.952 381.444C160.012 380.688 157.71 379.672 154.098 378.386L147.664 376.135H147.672Z" fill="white"/>
</svg>
