<?xml version="1.0" encoding="UTF-8"?><svg id="Layer_1" xmlns="http://www.w3.org/2000/svg" viewBox="0 0 500 500"><defs><style>.cls-1{fill-rule:evenodd;}</style></defs><path class="cls-1" d="m109.06,339.63c5.51,6.89,59.93,77.65,140.94,77.65,58.9,0,110.84-30.71,140.67-76.93l-138.39-52.97v-32.4l137.32,78.22c3.31,1.67,4.43.83,1.38-1.67l-121.26-88.47,11.91-6.65,114.33,95.13c13.99-24.9,21.34-52.97,21.32-81.56,0-90.81-73.02-165.13-163.38-167.22l25.51,147.82-28.25,16.61-1.58-162.39c0-1.93-1.38-1.93-1.67,0l-15.6,153.53-11.63-6.93,23.69-148.59c-89.54,2.98-161.67,76.91-161.67,167.17-.02,28.25,7.15,56.05,20.86,80.74l113.78-94.61,11.91,6.93-121.19,88.36c-3.31,2.22-2.5,3.31,1.38,1.38l137.54-78.11v32.4l-137.29,52.34c-.9.33.09-.07-.64.2h0ZM250,74.34c96.76,0,175.66,78.9,175.66,175.66s-78.9,175.66-175.66,175.66-175.66-78.9-175.66-175.66S153.24,74.34,250,74.34h0Zm0,416.67c132.75,0,241.01-108.27,241.01-241.01S382.73,8.99,250,8.99c-132.73,0-241.01,108.27-241.01,241.01s108.27,241.01,241.01,241.01Zm0,8.99c137.69,0,250-112.31,250-250S387.69,0,250,0,0,112.31,0,250s112.31,250,250,250Zm206.33-346.1c-.48-1.01-1.65-1.03-1.97-.24-1.14,3.79-.66,6.71,1.43,11.21,4.08,8.91,7.52,18.07,9.94,27.68.35,1.07,1.14,1.25,1.78.61,2.37-4.41,1.54-10.33-1.6-18.43-2.87-7.06-5.99-14.04-9.56-20.84h0Zm-19.92,48.63c.66.24,1.38-.33,1.14-1.25l-8.95-23.98c-1.45-3.79-4.39-6.34-7.5-7.06-.9-.26-1.62.48-1.16,1.21,2.72,6.14,5.29,12.37,7.59,18.69,2.17,5.59,5.26,10.7,8.88,12.39h0Zm41.61,36.76c-.07-1.12-1.12-1.6-1.71-1.01-2.54,3.05-3.25,5.9-3.09,10.88.24,9.78-.18,19.57-1.71,29.37-.09,1.12.57,1.58,1.4,1.25,3.93-3.11,5.48-8.91,5.77-17.57.07-7.63-.04-15.27-.66-22.92Zm-37.42,36.9c.53.5,1.4.24,1.54-.7l1.18-25.58c.18-4.06-1.54-7.55-4.12-9.43-.72-.59-1.69-.2-1.56.64.09,6.71,0,13.45-.37,20.16-.18,6.01.66,11.93,3.33,14.92h0Zm24.13,51.77c.42-1.03-.35-1.91-1.14-1.62-3.58,1.71-5.4,4.04-7.33,8.62-3.84,9.02-8.31,17.72-13.78,25.99-.55.99-.15,1.69.75,1.73,4.87-1.21,8.69-5.81,12.55-13.6,3.27-6.91,6.34-13.91,8.95-21.12h0Zm-49.36,18.01c.26.66,1.16.81,1.69,0,3.9-7.59,7.81-15.18,11.71-22.77,1.84-3.62,1.73-7.52.18-10.29-.42-.83-1.45-.88-1.69-.07-2.7,6.16-5.62,12.22-8.71,18.18-2.68,5.37-4.39,11.12-3.18,14.94h0Zm21.23-193.06c.15,1.01-.68,1.69-1.4,1.23-6.47-4.61-9.96-10.31-10.88-18.43,0-1.03.9-1.38,1.78-.92,6.41,5.07,9.67,10.7,10.51,18.12h0Zm-19.72,251.84c.77-.81.37-1.91-.46-1.93-3.97.26-6.51,1.75-10,5.29-6.91,6.95-14.28,13.4-22.4,19.06-.88.7-.77,1.51.04,1.89,4.96.68,10.22-2.19,16.69-7.98,5.59-5.2,11.03-10.57,16.12-16.32Zm-52.51-1.51c0,.7.79,1.18,1.58.61l19.28-16.82c3.05-2.7,4.39-6.34,3.97-9.5-.09-.94-1.01-1.36-1.54-.68-4.78,4.74-9.72,9.3-14.81,13.69-4.5,4.01-8.2,8.71-8.49,12.7Zm93.4-195.97c.81-.53,1.58-.99,2.26-1.84,1.97-2.85,1.8-7.04.5-11.54-3.05-9.1-5.86-17.79-9.65-26.56-2.04-4.43-3.14-11.03-2.19-14.28,1.45-5.07,3.71-9.87,4.83-14.78.42-1.25,2.19-1.01,3.16.5,5.7,9.61,10.46,19.63,14.76,29.85,5.09,11.32,5.29,23.49.24,32.49-3.2,5.26-8.29,10.09-12.66,13.05-.39.26-.61.72-.53,1.18.46,3.38,1.05,6.8,1.45,10.24.07.86.72.94,1.1.66,3.01-2.3,5.7-5.13,8.38-8.09.57-.55.77-1.38.53-2.15-.83-3.07.99-6.25,4.06-7.06.48-.13.99-.2,1.49-.2,3.16,0,5.75,2.59,5.75,5.75s-2.59,5.75-5.77,5.75c-.61,0-1.21-.09-1.78-.29-.61-.22-1.62,0-2.13.61-2.33,2.17-4.58,4.72-6.62,7.09-1.89,2.26-2.9,5-3.49,7.77-.39,1.82-.42,3.11-.33,4.94.7,15.99-.44,31.98-3.4,47.71-.13.53.15.94.55.88,1.03-.15,2.02-.44,2.98-.86,2.92-1.84,4.41-5.77,4.98-10.42.77-9.56,1.6-18.67,1.56-28.23-.13-4.87,1.45-11.38,3.58-13.99,3.31-4.08,7.28-7.63,10.24-11.71.88-1.01,2.41-.07,2.7,1.71,1.47,11.08,1.91,22.15,1.84,33.25.24,12.42-4.37,23.69-12.53,29.96-5,3.6-11.58,6.03-16.78,7.04-.37.07-.83.44-.92.86-.72,3.14-1.54,6.25-2.39,9.37-.35,1.01-.02,1.65,1.1,1.29,3.77-1.1,7.9-2.61,11.32-4.47.72-.35,1.14-.99,1.21-1.86.04-.5.13-1.01.31-1.49,1.05-2.98,4.32-4.56,7.33-3.53,3.01,1.05,4.58,4.34,3.53,7.33-1.05,3.01-4.37,4.58-7.35,3.51-.57-.2-1.1-.48-1.58-.86-.5-.42-1.54-.55-2.22-.13-2.92,1.27-5.88,2.92-8.6,4.52-2.7,1.6-5.79,4.54-8.07,7.46-1.01,1.29-1.43,2.15-1.97,3.66-5.57,15.14-12.88,29.57-21.76,43.04-.2.29-.15.66.2.77.7.15,1.43.22,2.19.22,3.42-.46,6.41-3.42,8.86-7.39,4.67-8.38,9.21-16.32,13.14-25.03,1.91-4.5,6.05-9.76,9.08-11.23,4.72-2.33,9.78-3.9,14.17-6.41,1.21-.55,2.22.94,1.75,2.68-3.27,10.68-7.48,20.95-12.13,31-4.94,11.38-13.82,19.74-23.87,22.05-5.62,1.1-12.06.72-17.07-.33-.35-.09-.77.09-.94.33-2.24,3.11-4.56,6.19-6.95,9.19-.24.33-.31.64.2.72,4.06.53,8.73.86,12.83.48.79-.02,1.51-.5,1.84-1.23,1.47-2.83,4.96-3.93,7.79-2.43.44.24.86.53,1.23.86,2.33,2.15,2.48,5.81.31,8.14-2.17,2.33-5.81,2.48-8.14.31-.44-.42-.83-.9-1.12-1.43-.31-.57-1.18-1.1-1.97-1.01-3.18,0-6.56.35-9.67.7-2.59.33-5.77,1.38-8.62,2.74-2.04.97-2.72,1.62-4.21,3.25-11.38,12.35-24.19,23.3-38.17,32.62-.31.26-.37.66-.09.9.81.66,1.58,1.1,2.59,1.51,3.36.86,7.22-.79,10.97-3.6,7.44-6.05,14.59-11.76,21.45-18.4,3.44-3.47,9.23-6.82,12.59-7.09,5.24-.42,10.55-.02,15.55-.7,1.32-.07,1.71,1.69.64,3.14-7,8.73-14.7,16.69-22.75,24.33-8.8,8.75-20.14,13.23-30.31,11.67-6.05-1.14-12.37-4.21-16.69-7.26-.31-.22-.7-.22-1.01,0-3.42,2.08-6.89,4.08-10.4,5.97-.5.31-.86.13-1.07-.37l-.99-1.95c-.24-.55-.02-.99.48-1.25,3.38-1.82,6.71-3.73,9.98-5.75.37-.24.48-.57.42-.9-.92-4.74-.94-8.62-.7-13.89.18-7.66,2.08-15.46,6.89-20.16,6.98-6.43,12.5-10.02,16.3-13.99,3.27-3.33,5.79-6.62,8.66-10.16.79-.86,2.26-.86,2.76.46,5.73,13.99,1.78,22.92-6.69,30.1-5.97,4.91-12.04,9.72-18.01,14.63-2.68,2.52-3.95,5.66-3.49,9.04.04.48.39.72.7.5,13.71-9.15,26.28-19.9,37.47-32,1.4-1.51,1.71-2.59,2.17-4.17,1.27-4.87,1.43-9.87-.15-15.09-.2-.75-1.01-1.4-1.67-1.47-3.16-.42-5.37-3.29-4.98-6.45.09-.59.24-1.18.5-1.73,1.38-2.85,4.83-4.08,7.68-2.7,2.85,1.36,4.08,4.83,2.7,7.68-.22.48-.5.9-.86,1.27-.55.57-.72,1.43-.44,2.17,1.03,3.44,2.11,6.8,3.58,9.89.09.26.39.26.55.04,2.33-2.9,4.43-5.86,6.73-8.86.2-.22.15-.68,0-.94-3.01-4.43-4.54-8.2-6.38-13.53-2.68-7.17-3.77-15.14-1.05-21.28,4.1-8.53,7.92-13.93,9.98-19.02,1.8-4.3,2.94-8.29,4.3-12.63.42-1.07,1.8-1.62,2.74-.59,10.49,10.86,10.13,20.64,4.91,30.45-3.73,6.78-7.61,13.47-11.32,20.25-1.71,3.69-1.56,7.48.7,10.66.24.35.59.33.81.04,10.13-13.29,16.63-28.76,22.24-44.57.35-1.01.42-2.06.24-3.2-.77-4.96-2.63-9.59-6.14-13.73-.48-.61-1.49-.88-2.11-.68-3.05.88-6.25-.88-7.13-3.93-.18-.59-.24-1.21-.22-1.8.11-3.16,2.81-5.66,5.97-5.55,3.18.13,5.66,2.81,5.53,5.99-.02.5-.11,1.01-.26,1.49-.26.83-.11,1.56.44,2.17,2.11,2.52,4.23,4.91,6.51,7.04.59.53,1.03.33,1.23-.53.92-3.2,1.75-6.45,2.5-9.72.13-.39-.13-.88-.42-1.12-3.93-2.54-6.71-5.2-10.29-8.93-5.42-5.42-9.72-12.2-9.81-18.91.18-9.48,1.4-15.95,1.18-21.45-.15-4.67-.77-8.77-1.36-13.29-.07-1.16.94-2.24,2.24-1.67,14.06,5.53,17.79,14.57,17.13,25.64-.57,7.7-1.32,15.4-1.89,23.12-.02,3.71,1.38,6.82,4.19,8.84.42.33.66-.04.72-.39,2.59-13.75,3.75-27.73,3.51-41.7-.15-7.87-6.67-16.52-13.27-20.42-.66-.42-1.69-.35-2.22.04-2.59,1.84-6.19,1.23-8.03-1.38-.35-.5-.61-1.03-.79-1.62-.92-3.03.77-6.25,3.79-7.19,3.05-.94,6.27.77,7.19,3.82.15.48.24.99.24,1.49.02.88.42,1.51,1.14,1.91,3.33,1.97,6.65,3.82,10.07,5.13.55.2.75-.22.66-.86-.39-3.64-.9-7.28-1.51-10.9-.09-.37-.42-.66-.79-.75-4.63-.81-8.23-2.15-12.96-4.19-7.11-2.85-13.73-7.39-16.45-13.56-3.55-8.77-4.96-15.22-7.35-20.2-1.95-4.23-4.17-7.77-6.45-11.69-.53-1.03,0-2.43,1.4-2.41,15.11-.44,22.09,6.41,25.82,16.87,2.5,7.3,4.83,14.7,7.33,22,1.45,3.44,3.99,5.77,7.41,6.49.39.09.57-.37.5-.81-2.79-13.36-6.89-26.39-12.26-38.91-1.03-2.57-2.48-4.19-4.72-5.94-11.76-9.52-17.99-17.97-19.22-37.29-.04-1.23.64-1.45,1.71-.88,13.36,6.49,26.54,13.14,24.72,35.56-.22,2.79-.04,4.5,1.12,7.06,5.48,12.77,9.67,26.06,12.5,39.66.07.5.5.7.88.44h0Zm-77.92-107.59l7.37,6.49c-2,2.68-2.96,5.18-2.85,7.55.11,2.35,1.18,4.65,3.27,6.89,2.19,2.37,4.37,3.69,6.49,3.95s3.86-.22,5.2-1.47c.86-.81,1.36-1.73,1.47-2.81.15-1.07-.15-2.43-.88-4.1-.5-1.14-1.8-3.6-3.88-7.35-2.7-4.85-4.06-8.73-4.12-11.63-.09-4.1,1.32-7.48,4.19-10.18,1.84-1.73,4.06-2.81,6.67-3.27,2.59-.44,5.22-.09,7.92,1.1,2.68,1.21,5.33,3.18,7.92,5.97,4.26,4.56,6.47,8.93,6.62,13.1.15,4.17-1.4,7.87-4.63,11.1l-7.17-7.04c1.58-2.06,2.28-3.99,2.15-5.79s-1.18-3.73-3.11-5.79c-2-2.13-3.97-3.4-5.99-3.79-1.21-.29-2.46.07-3.33.92-.86.81-1.25,1.86-1.18,3.16.09,1.65,1.36,4.65,3.86,9.02,2.48,4.37,4.08,7.81,4.78,10.35.68,2.54.7,5.05.04,7.46-.66,2.43-2.15,4.72-4.43,6.84-2.08,1.93-4.67,3.22-7.46,3.73-2.9.53-5.77.18-8.62-1.12-2.85-1.29-5.77-3.51-8.71-6.67-4.28-4.61-6.51-9.1-6.69-13.56-.24-4.43,1.49-8.8,5.11-13.05h0Zm-41.33-9.37l29.22-40.21,29.81,21.65-4.94,6.8-21.69-15.77-6.47,8.91,20.18,14.67-4.91,6.78-20.18-14.67-7.96,10.95,22.46,16.32-4.91,6.78-30.6-22.2h0Zm-14.52-50.91l-12.33,30.51,6.93,2.81c2.59,1.05,4.54,1.67,5.81,1.84,1.65.24,3.16.11,4.52-.39s2.76-1.67,4.23-3.47c1.45-1.8,2.92-4.5,4.37-8.07,1.45-3.55,2.22-6.43,2.37-8.58.13-2.17-.13-4.01-.83-5.53-.7-1.54-1.84-2.83-3.44-3.9-1.18-.83-3.66-2-7.46-3.53l-4.17-1.69h0Zm-6.16-11.56l17,6.87c3.84,1.56,6.62,3.03,8.42,4.43,2.35,1.84,4.15,4.28,5.22,7.06,1.12,2.81,1.58,5.9,1.4,9.23-.2,3.36-1.16,7.17-2.9,11.52-1.54,3.79-3.33,6.87-5.4,9.23-2.5,2.9-5.24,4.94-8.23,6.14-2.26.92-4.91,1.27-8.03,1.03-2.3-.18-5.2-.97-8.64-2.35l-17.5-7.06,18.65-46.11h0Zm-57.84,39.73l8.18-49.03,36.35,6.08-1.38,8.29-26.45-4.41-1.82,10.86,24.61,4.1-1.38,8.25-24.61-4.1-2.24,13.34,27.38,4.56-1.38,8.27-37.25-6.21Zm-10.4-18.32l9.96,2.22c-1.01,5.53-3.14,9.76-6.36,12.7-3.22,2.92-7.5,4.61-12.81,5.09-6.58.57-12.17-1.21-16.8-5.31-4.63-4.12-7.28-10.09-7.96-17.88-.72-8.25.86-14.83,4.72-19.76s9.26-7.7,16.19-8.31c6.05-.53,11.14.83,15.22,4.08,2.43,1.91,4.39,4.8,5.88,8.66l-9.7,3.22c-.81-2.52-2.19-4.45-4.19-5.77s-4.3-1.86-6.95-1.62c-3.66.33-6.54,1.91-8.6,4.74-2.06,2.83-2.83,7.19-2.3,13.1.55,6.25,2.06,10.62,4.54,13.07,2.48,2.46,5.53,3.53,9.13,3.22,2.65-.24,4.87-1.27,6.65-3.14,1.75-1.84,2.87-4.63,3.4-8.31h0Zm-68.37,1.47l7.13-2.04c4.63-1.34,7.46-2.35,8.51-3.07,1.03-.72,1.73-1.65,2.13-2.81.37-1.14.37-2.43-.04-3.86-.46-1.62-1.27-2.79-2.41-3.53s-2.52-1.01-4.17-.83c-.81.13-3.16.75-7.09,1.86l-7.52,2.15,3.47,12.13h0Zm-1.73,30.36l-13.71-47.78,20.31-5.83c5.11-1.47,8.93-2.08,11.49-1.91,2.57.2,4.85,1.18,6.87,2.98,2.02,1.8,3.42,4.1,4.23,6.93,1.03,3.58.81,6.87-.61,9.81-1.43,2.92-4.17,5.31-8.18,7.11,2.43.64,4.54,1.47,6.32,2.54s4.34,3.14,7.7,6.19l8.51,7.66-11.54,3.31-9.96-8.4c-3.55-3.01-5.9-4.85-7.09-5.57-1.18-.7-2.35-1.07-3.47-1.16-1.12-.07-2.79.22-5.02.86l-1.95.55,5.73,19.94-9.63,2.79h0Zm-33.78,19.7l-24.85-43.04,31.92-18.43,4.21,7.28-23.23,13.4,5.51,9.54,21.61-12.48,4.19,7.24-21.61,12.48,6.76,11.71,24.04-13.89,4.19,7.26-32.73,18.91h0Zm-36.61,33.14l-34.53-35.76,10.81-10.44,30.05,18.12-17.15-30.58,10.84-10.46,34.53,35.76-6.71,6.47-27.18-28.14,20.07,35.01-6.95,6.71-34.26-21.32,27.18,28.14-6.69,6.49h0Zm-64.75,19.98c.48-1.01,1.65-1.03,1.97-.24,1.14,3.79.66,6.71-1.43,11.21-4.08,8.91-7.52,18.07-9.96,27.68-.35,1.07-1.14,1.25-1.78.61-2.37-4.41-1.54-10.33,1.6-18.43,2.9-7.06,6.01-14.04,9.59-20.84h0Zm19.92,48.63c-.66.24-1.38-.33-1.14-1.25l8.95-23.98c1.45-3.79,4.39-6.34,7.5-7.06.9-.26,1.62.48,1.18,1.21-2.74,6.14-5.26,12.37-7.59,18.69-2.17,5.59-5.26,10.7-8.91,12.39h0Zm-41.59,36.76c.04-1.12,1.12-1.6,1.71-1.01,2.54,3.05,3.25,5.9,3.09,10.88-.24,9.78.18,19.57,1.71,29.37.09,1.12-.57,1.58-1.38,1.25-3.93-3.11-5.48-8.91-5.77-17.57-.11-7.63,0-15.27.64-22.92Zm37.42,36.9c-.5.5-1.4.24-1.54-.7l-1.18-25.58c-.18-4.06,1.54-7.55,4.12-9.43.72-.59,1.69-.2,1.56.64-.09,6.71,0,13.45.37,20.16.18,6.01-.66,11.93-3.33,14.92h0Zm-24.15,51.77c-.42-1.03.35-1.91,1.14-1.62,3.58,1.71,5.4,4.04,7.33,8.62,3.84,9.02,8.31,17.72,13.78,25.99.55.99.15,1.69-.75,1.73-4.87-1.21-8.69-5.81-12.55-13.6-3.27-6.91-6.34-13.91-8.95-21.12h0Zm49.38,18.01c-.26.66-1.16.81-1.69,0l-11.71-22.77c-1.84-3.62-1.73-7.52-.18-10.29.42-.83,1.45-.88,1.69-.07,2.7,6.16,5.59,12.22,8.71,18.18,2.68,5.37,4.39,11.12,3.18,14.94h0Zm-21.23-193.06c-.15,1.01.68,1.69,1.4,1.23,6.49-4.61,9.96-10.31,10.88-18.43.02-1.03-.9-1.38-1.75-.92-6.45,5.07-9.72,10.7-10.53,18.12h0Zm19.7,251.84c-.77-.81-.37-1.91.46-1.93,3.95.26,6.51,1.75,10,5.29,6.91,6.95,14.28,13.4,22.4,19.06.88.7.75,1.51-.04,1.89-4.96.68-10.22-2.19-16.69-7.98-5.59-5.2-11.03-10.57-16.12-16.32Zm52.54-1.51c0,.7-.79,1.18-1.58.61l-19.3-16.82c-3.05-2.7-4.39-6.34-3.97-9.5.09-.94,1.01-1.36,1.54-.68,4.78,4.74,9.72,9.3,14.81,13.69,4.5,4.01,8.2,8.71,8.51,12.7ZM42.91,207.27c-.81-.53-1.58-.99-2.24-1.84-1.97-2.85-1.8-7.04-.5-11.54,3.05-9.1,5.86-17.79,9.65-26.56,2.04-4.43,3.14-11.03,2.19-14.28-1.45-5.07-3.71-9.87-4.83-14.78-.42-1.25-2.19-1.01-3.16.5-5.7,9.61-10.46,19.63-14.76,29.85-5.09,11.32-5.29,23.49-.24,32.49,3.2,5.26,8.29,10.09,12.66,13.05.39.26.61.72.53,1.18-.46,3.38-1.05,6.8-1.45,10.24-.07.86-.72.94-1.1.66-2.98-2.3-5.7-5.13-8.38-8.09-.57-.55-.77-1.38-.53-2.15.83-3.07-.99-6.25-4.06-7.06-.48-.13-.99-.2-1.49-.2-3.18,0-5.75,2.59-5.75,5.75s2.61,5.77,5.79,5.75c.61,0,1.21-.09,1.78-.29.61-.22,1.62,0,2.13.61,2.35,2.17,4.58,4.72,6.62,7.09,1.89,2.26,2.9,5,3.49,7.77.39,1.82.42,3.11.33,4.94-.7,15.99.44,31.98,3.4,47.71.13.53-.15.94-.53.88-1.03-.15-2.02-.44-2.98-.86-2.94-1.84-4.41-5.77-4.98-10.42-.77-9.56-1.6-18.67-1.56-28.23.13-4.87-1.45-11.38-3.6-13.99-3.31-4.08-7.28-7.63-10.24-11.71-.88-1.01-2.41-.07-2.7,1.71-1.47,11.08-1.91,22.15-1.84,33.25-.24,12.42,4.37,23.69,12.53,29.96,5,3.6,11.58,6.03,16.78,7.04.37.07.83.44.92.86.72,3.14,1.54,6.27,2.39,9.37.35,1.01.02,1.65-1.1,1.29-3.77-1.1-7.9-2.61-11.32-4.47-.72-.35-1.14-.99-1.21-1.86-.24-3.18-3.01-5.57-6.16-5.33-.5.04-.99.13-1.47.31-3.01,1.05-4.58,4.34-3.53,7.33,1.05,3.01,4.32,4.58,7.33,3.53.59-.2,1.14-.5,1.62-.88.5-.42,1.54-.55,2.22-.13,2.92,1.27,5.88,2.92,8.6,4.52,2.7,1.6,5.79,4.54,8.07,7.46,1.01,1.29,1.4,2.15,1.97,3.66,5.57,15.14,12.85,29.59,21.74,43.04.2.29.15.66-.2.77-.72.15-1.45.24-2.19.22-3.42-.46-6.41-3.42-8.86-7.39-4.67-8.38-9.21-16.32-13.14-25.03-1.91-4.5-6.05-9.76-9.08-11.23-4.72-2.33-9.78-3.9-14.19-6.41-1.21-.55-2.22.94-1.75,2.68,3.27,10.68,7.48,20.95,12.13,31,4.94,11.38,13.82,19.74,23.87,22.05,5.62,1.1,12.06.72,17.07-.33.35-.09.77.09.92.33,2.24,3.11,4.56,6.19,6.95,9.19.24.33.33.64-.2.72-4.06.53-8.73.86-12.83.48-.79-.02-1.51-.5-1.84-1.23-1.47-2.83-4.96-3.93-7.77-2.46-.46.24-.88.53-1.25.88-2.33,2.15-2.48,5.81-.33,8.14,2.17,2.33,5.81,2.48,8.16.31.44-.42.81-.9,1.12-1.43.31-.57,1.21-1.1,1.97-1.01,3.18,0,6.56.35,9.67.7,2.59.33,5.77,1.38,8.62,2.74,2.04.97,2.72,1.62,4.21,3.25,11.38,12.35,24.19,23.3,38.17,32.62.31.26.37.66.09.9-.79.64-1.67,1.14-2.59,1.51-3.36.86-7.22-.79-10.97-3.6-7.44-6.05-14.59-11.76-21.45-18.4-3.42-3.47-9.23-6.82-12.59-7.09-5.24-.42-10.55-.02-15.55-.7-1.32-.07-1.71,1.69-.64,3.14,7,8.73,14.7,16.69,22.75,24.33,8.8,8.75,20.14,13.23,30.31,11.67,6.05-1.14,12.37-4.21,16.69-7.26.31-.22.7-.22,1.01,0,3.42,2.08,6.89,4.08,10.42,5.97.5.31.86.13,1.07-.37l.99-1.95c.24-.55.02-.99-.48-1.25-3.38-1.82-6.71-3.73-9.98-5.75-.37-.24-.48-.57-.42-.9.92-4.74.94-8.62.7-13.89-.18-7.66-2.08-15.46-6.89-20.16-6.98-6.43-12.5-10.02-16.32-13.99-3.27-3.33-5.79-6.62-8.66-10.16-.79-.86-2.26-.86-2.76.46-5.75,13.99-1.78,22.92,6.69,30.1,5.97,4.91,12.04,9.72,18.01,14.63,2.68,2.52,3.95,5.66,3.49,9.04-.04.48-.39.72-.7.5-13.71-9.15-26.3-19.9-37.47-32-1.4-1.51-1.71-2.59-2.17-4.17-1.27-4.87-1.43-9.87.15-15.09.2-.77,1.01-1.4,1.67-1.47,3.16-.42,5.37-3.29,4.98-6.45-.09-.61-.24-1.18-.5-1.75-1.38-2.85-4.8-4.08-7.68-2.7-2.87,1.38-4.08,4.8-2.7,7.68.22.48.5.9.83,1.27.57.66.72,1.4.46,2.17-1.03,3.44-2.11,6.8-3.58,9.89-.09.26-.39.26-.55.04-2.3-2.9-4.43-5.86-6.73-8.86-.2-.22-.15-.68,0-.94,2.98-4.43,4.54-8.2,6.38-13.53,2.68-7.17,3.77-15.14,1.05-21.28-4.1-8.53-7.92-13.93-9.98-19.02-1.8-4.3-2.94-8.29-4.3-12.63-.42-1.07-1.8-1.62-2.74-.59-10.51,10.86-10.13,20.64-4.91,30.45,3.73,6.78,7.61,13.47,11.32,20.25,1.71,3.69,1.56,7.48-.7,10.66-.24.35-.57.33-.81.04-10.13-13.29-16.63-28.76-22.24-44.57-.33-1.03-.42-2.13-.24-3.2.77-4.96,2.63-9.59,6.14-13.73.48-.61,1.49-.88,2.11-.68,3.05.88,6.25-.88,7.13-3.95.18-.59.24-1.18.22-1.8-.13-3.18-2.79-5.66-5.97-5.55-3.18.13-5.66,2.81-5.53,5.99.02.5.11,1.01.26,1.49.26.83.11,1.56-.44,2.17-2.11,2.52-4.23,4.91-6.51,7.04-.59.53-1.03.33-1.23-.53-.92-3.22-1.75-6.45-2.5-9.72-.13-.39.13-.88.42-1.12,3.93-2.54,6.71-5.2,10.29-8.93,5.42-5.42,9.72-12.2,9.81-18.91-.18-9.48-1.4-15.95-1.18-21.45.13-4.67.77-8.77,1.34-13.29.07-1.16-.94-2.24-2.24-1.67-14.06,5.53-17.79,14.57-17.11,25.64.57,7.7,1.32,15.4,1.89,23.12.02,3.71-1.38,6.82-4.19,8.84-.42.33-.66-.04-.72-.39-2.59-13.75-3.75-27.73-3.51-41.7.15-7.87,6.67-16.52,13.27-20.42.66-.42,1.69-.35,2.22.04,2.59,1.84,6.21,1.23,8.03-1.38.35-.5.61-1.03.79-1.62.94-3.03-.77-6.25-3.79-7.19-3.05-.92-6.27.79-7.19,3.84-.15.48-.22.99-.24,1.47-.02.88-.42,1.51-1.14,1.91-3.33,1.97-6.65,3.82-10.07,5.13-.55.2-.75-.22-.66-.86.42-3.66.9-7.3,1.51-10.9.11-.37.42-.66.79-.75,4.61-.81,8.23-2.15,12.96-4.19,7.11-2.85,13.73-7.39,16.45-13.56,3.55-8.77,4.98-15.22,7.35-20.2,1.95-4.23,4.15-7.77,6.45-11.69.53-1.03,0-2.43-1.4-2.41-15.11-.44-22.09,6.41-25.82,16.87-2.5,7.3-4.85,14.7-7.35,22-1.45,3.44-3.99,5.77-7.41,6.49-.39.09-.57-.37-.5-.81,2.79-13.36,6.89-26.39,12.26-38.91,1.03-2.57,2.48-4.19,4.69-5.94,11.76-9.52,17.99-17.97,19.22-37.29.04-1.23-.64-1.45-1.69-.88-13.36,6.49-26.54,13.14-24.72,35.56.22,2.79.04,4.5-1.12,7.06-5.48,12.77-9.67,26.06-12.5,39.66-.02.55-.46.75-.86.48h0Zm164.1,272.37l4.98-49.46,36.65,3.69-.83,8.38-26.67-2.7-1.1,10.97,24.83,2.5-.83,8.31-24.83-2.5-1.36,13.45,27.62,2.79-.83,8.34-37.62-3.75h0Zm97.99-2.79l-2.79-8.6,14.87-38.74-22.02,7.15-2.61-8.01,34.61-11.25,2.41,7.41-15.53,40.3,26.89-8.73,2.59,7.96-38.43,12.5h0Zm-47.71,6.38l-5.92-49.36,9.7-1.16,24.15,30.53-3.95-32.95,9.26-1.12,5.92,49.36-10,1.21-23.76-29.79,3.86,32.18-9.26,1.1h0Zm-81.6-65.24l18.73,6.62c3.71,1.32,6.43,2.43,8.14,3.4,1.65.9,3.09,2.15,4.21,3.66,1.1,1.49,1.82,3.2,2.22,5.18.37,2,.22,4.08-.5,5.99-.75,2.15-2.11,4.04-3.9,5.42-1.82,1.4-3.99,2.24-6.27,2.43,2.54,1.84,4.26,4.04,5.09,6.56.83,2.54.77,5.18-.2,7.87-.77,2.15-2.04,4.1-3.69,5.7-1.71,1.65-3.62,2.79-5.77,3.38-2.13.59-4.52.59-7.13-.02-1.62-.39-5.48-1.62-11.52-3.73l-15.95-5.64,16.54-46.83h0Zm6.71,11.14l-3.84,10.84,6.19,2.19c3.69,1.32,5.99,2.06,6.93,2.28,1.69.39,3.16.29,4.41-.33s2.15-1.65,2.68-3.18c.5-1.45.53-2.76.07-3.95-.48-1.18-1.49-2.15-2.98-2.9-.9-.44-3.58-1.45-8.03-3.03l-5.42-1.93h0Zm-6.6,18.65l-4.43,12.53,8.75,3.09c3.42,1.21,5.62,1.89,6.6,2.02,1.4.26,2.85.02,4.1-.66,1.23-.68,2.15-1.84,2.74-3.51.5-1.4.57-2.72.24-3.95s-1.07-2.3-2.19-3.2-3.86-2.11-8.16-3.64l-7.66-2.68Z"/></svg>