<?xml version="1.0" encoding="UTF-8"?><svg id="Layer_1" xmlns="http://www.w3.org/2000/svg" viewBox="0 0 500 500"><defs><style>.cls-1{fill:#d9d9d9;fill-rule:evenodd;}</style></defs><path class="cls-1" d="m64.06,168.03C31.51,206.23.33,253.61,0,289.02c-.13,13.33,4.14,24.96,14.34,33.77,14.67,12.69,30.87,17.16,46.97,17.19,23.53.03,46.89-9.47,65.19-16.78,30.82-12.31,371.39-160.22,371.39-160.22,3.27-1.65,2.67-3.71-1.45-2.67-1.65.41-370.76,100.43-370.76,100.43-6.98,1.98-14.22,3.02-21.48,3.07-28.36.18-53.62-15.59-53.42-48.77.08-12.92,4.06-28.59,13.25-47.02h0Z"/></svg>