<svg width="420" height="392" viewBox="0 0 420 392" fill="none" xmlns="http://www.w3.org/2000/svg">
<path d="M228.189 26.717C228.029 25.8429 227.92 24.9687 227.861 24.0862C226.996 11.68 236.328 0.929746 248.725 0.0556011C261.131 -0.810138 271.874 8.53648 272.739 20.9426C273.604 33.3487 264.273 44.099 251.875 44.9732C251.094 45.032 250.313 45.0404 249.557 45.0152C249.053 45.1413 248.75 45.2085 248.322 45.5868C247.045 47.5788 251.564 47.209 248.49 55.9C248.49 55.9 248.473 56.8582 248.129 57.808C247.885 61.1449 246.609 71.0378 246.424 76.2995C247.079 77.0644 247.264 77.4342 247.188 79.2834C246.894 81.7881 246.323 87.9155 245.399 91.8492C244.618 95.2197 243.24 95.8585 242.132 96.6822C240.578 103.659 240.166 109.441 236.168 117.914C235.807 124.335 235.353 126.084 234.009 129.219C233.858 138.675 234.513 140.087 228.138 155.057C226.492 162.058 228.054 166.908 229.793 174.187C231.573 181.668 236.504 184.794 237.235 192.451C238.965 210.489 238.528 222.769 234.665 236.915L238.041 244.917C242.232 246.842 252.623 252.095 246.861 260.416C254.974 264.686 267.238 269.216 277.351 277.874C281.416 281.261 285.716 284.959 289.572 289.297C296.913 290.44 296.132 291.028 301.575 294.373C317.576 304.191 343.244 323.666 358.12 337.459C360.682 338.955 361.723 340.031 363.798 341.123C364.126 341.745 364.21 341.888 364.134 342.056C363.42 343.855 363.454 343.905 362.807 345.343C363.613 346.234 365.108 347.057 365.999 347.839C366.839 348.1 366.839 347.696 368.266 347.343C370.131 349.091 372.449 350.504 373.273 350.419C375.801 349.781 375.372 350.302 377.514 347.906C378.287 347.116 379.572 347.915 379.572 347.915C380.379 346.973 382.1 345.091 384.402 343.729C386.241 342.645 389.744 342.527 389.744 342.527C390.92 342.535 390.701 343.746 390.592 344.132C389.265 344.813 386.451 345.57 384.881 346.738C381.445 350.293 378.749 355.093 378.749 355.093C385.67 354.143 389.92 355.866 395.682 355.202C398.824 355.017 401.15 355.219 404.451 352.832C404.451 352.832 407.626 350.571 410.465 349.369C413.229 348.167 415.849 348.806 418.277 350.571C419.99 352.512 421.032 352.521 418.42 355.261C417.479 356.32 416.11 357.513 414.371 359.228C411.314 362.246 407.206 366.272 402.948 369.6C398.639 372.971 393.75 375.988 390.693 377.375C382.991 382.914 384.805 381.468 378.749 386.957C377.985 387.638 375.952 388.865 374.969 389.521C372.584 391.092 371.836 389.781 370.274 386.907C370.274 386.907 369.56 385.831 368.384 383.536C367.099 381.031 366.133 378.174 366.528 378.216C365.091 378.031 358.632 370.458 358.616 368.827C357.246 368.516 351.426 362.868 351.216 361.792L346.05 357.648C340.145 358.875 338.793 355.202 323.187 344.132C321.406 344.099 318.659 343.141 314.72 340.215C307.681 334.576 290.798 321.808 287.934 320.354C284.86 318.791 281.189 317.311 278.93 315.445C275.553 314.823 273.705 314.47 272.017 314C270.295 313.529 268.724 312.915 264.357 312.327C257.251 311.444 249.876 308.494 242.854 304.981C239.528 303.401 236.638 302.602 233.774 301.366C227.357 298.652 221.855 296.214 217.588 295.222C215.959 295.063 208.223 292.743 204.166 290.372C202.755 289.65 201.949 288.952 201.025 288.742C198.891 288.254 197.53 289.095 196.565 289.414C191.365 292.129 186.494 294.466 181.991 296.895C177.8 299.139 173.945 301.467 169.854 303.821C166.167 305.956 161.908 307.965 157.532 310.049C157.532 310.049 145.051 316.311 138.23 318.749C132.317 323.582 120.222 331.945 112.839 336.089C109.185 337.828 102.079 342.334 98.8031 343.334C96.93 344.838 90.2776 349.596 85.0615 353.513C81.0298 356.53 77.9892 359.068 77.9892 359.068C75.6457 361.17 75.8053 362.162 71.362 360.27C70.1273 361.287 69.1698 361.918 68.3802 362.498C65.1632 364.834 64.8944 364.271 63.7185 364.204C61.4758 366.146 61.1987 365.137 59.2416 367.373C57.9565 369.365 59.2752 368.886 56.5621 369.852C55.991 370.071 55.7222 370.769 55.277 371.147C53.0932 372.946 53.0848 378.022 47.8603 378.384C44.8365 380.544 45.6092 383.149 43.2994 383.04C43.4422 385.276 39.2088 388.546 38.4445 388.537C31.7837 390.84 31.3217 385.94 23.3254 389.596C22.2923 390.067 20.772 391.378 18.7729 391.756C15.2536 392.42 11.0118 391.723 8.41638 389.714C4.33424 386.57 0.579675 380.493 0.579675 380.493C-0.713844 377.425 0.0337092 375.492 4.08225 372.592C5.77055 371.517 6.08133 370.718 8.91195 370.525C10.3231 369.995 9.93669 370.811 12.4481 369.903C13.9012 369.382 13.9012 369.751 16.841 369.499C17.513 369.045 18.4621 368.886 19.7221 368.474C22.0403 367.709 24.2998 366.852 24.2998 366.852C24.2998 366.852 24.8877 366.255 27.122 366.473C29.0119 365.7 30.9522 364.549 31.9433 364.196C31.6913 361.203 32.0105 361.346 33.3964 360.136C35.1267 358.648 35.4375 358.892 36.7226 359.808C37.2686 359.497 37.5289 359.388 37.4701 358.934C37.2602 357.379 35.9246 356.639 36.3278 353.21C35.7315 351.832 34.8579 350.134 35.0511 349.108C35.3367 347.999 35.6055 347.469 36.2774 347.116C36.9914 346.738 37.2266 347.251 37.6045 347.679C38.2849 348.478 38.8393 350.831 38.8393 350.831C39.0828 353.487 39.906 356.925 42.5266 354.984C44.0721 353.412 44.3745 349.234 47.5243 350.125L49.7754 352.084C51.6821 350.285 51.7744 350.285 52.9168 349.562C52.9168 349.562 51.1277 347.755 52.6984 346.343C53.7735 345.385 55.067 344.704 57.3685 342.149C63.6849 335.164 66.9271 332.079 73.7643 326.448C87.3966 315.227 102.902 307.359 112.755 303.451C115.972 299.366 119.096 296.66 126.227 295.97C134.702 281.648 150.939 268.855 154.66 266.813C157.692 261.316 159.01 261.896 162.975 260.794C166.116 258.273 166.83 258.273 168.242 255.642C169.611 250.204 165.092 235.68 176.624 234.948C179.077 231.485 178.464 232.317 181.193 229.039C179.346 224.475 178.581 220.659 178.077 217.373C177.985 216.995 173.5 213.826 174.768 209.691C172.861 207.421 169.291 202.117 168.183 199.638C167.67 199.646 167.25 199.453 166.688 199.377C166.108 199.285 165.377 199.319 164.571 199.251C162.773 203.891 160.816 204.236 157.616 205.261C151.913 217.432 149.905 222.576 133.762 232.637C127.353 239.815 125.303 247.817 125.337 247.699C124.237 250.069 124.623 253.389 125.203 255.171C124.363 257.802 124.581 258.063 124.581 258.063C124.934 259.055 125.849 260.374 126.975 260.652C128.915 261.164 130.855 261.08 130.738 263.24C130.477 265.947 126.933 265.501 125.253 265.199C118.794 264.173 120.835 259.962 116.702 261.366C113.536 263.434 112.351 269.553 107.186 268.754C106.505 268.3 106.715 266.964 107.177 265.997C107.9 264.493 109.185 263.24 108.42 262.677C105.052 263.753 101.693 264.854 98.3327 265.964C95.1661 266.829 91.7055 265.249 94.8133 263.165C96.258 262.602 98.3327 261.896 100.878 260.265C100.878 260.265 102.188 258.475 99.6682 259.374C96.9132 260.357 92.8563 260.971 89.9416 260.652C89.9416 260.652 83.9024 259.861 83.1297 259.382C82.3485 258.912 81.6346 257.037 83.5244 257.054C85.9183 257.071 91.8987 256.373 96.5436 255.129C98.7863 254.255 103.045 251.734 105.43 250.548C105.43 250.548 108.026 246.766 109.445 246.026C111.822 243.286 113.838 241.664 115.946 238.857C118.004 234.604 120.138 227.871 126.958 217.449C130.108 212.641 134.03 207.043 138.961 202.042C138.961 202.042 140.238 194.032 146.655 188.333C148.074 184.996 150.225 181.062 152.341 177.423C153.164 176.028 153.946 174.809 154.735 173.481C156.726 170.354 158.817 164.538 166.57 163.621C166.57 163.621 169.888 161.167 171.156 159.427C173.147 157.729 172.693 155.09 174.306 153.224C171.836 150.812 165.52 146.281 164.907 139.978C164.252 133.295 166.637 127.798 170.669 123.722C175.146 119.242 179.866 116.998 185.603 117.342C192.768 118.41 194.12 120.78 196.397 123.133C198.589 125.361 199.404 123.932 200.327 126.538C206.333 128.135 206.006 127.429 205.955 131.858C206.879 133.102 208.425 134.262 208.408 136.842C210.424 132.648 210.827 131.875 216.219 127.26C217.496 123.512 218.361 119.822 219.478 116.073C220.528 112.602 221.839 109.038 222.846 106.357C221.771 98.7751 223.98 97.5227 226.92 90.8826C226.399 89.9664 226.509 89.7058 226.727 88.2097C227.869 83.8138 229.658 78.0058 230.725 74.215C230.725 74.215 231.078 72.7105 232.632 72.5928C233.976 67.8018 236 58.8754 236.336 57.0515C237.722 52.0336 236.832 50.4282 235.765 47.604C235.42 46.6794 235.58 45.3598 234.992 44.3344C233.312 41.4094 231.506 37.6102 230.28 34.8953C229.482 33.1638 228.231 26.6498 228.231 26.6498C227.155 23.3213 228.088 26.6498 228.088 26.6498" fill="#D9D9D9"/>
</svg>
