<svg width="421" height="392" viewBox="0 0 421 392" fill="none" xmlns="http://www.w3.org/2000/svg">
<path d="M228.732 26.717C228.572 25.8429 228.462 24.9687 228.403 24.0862C227.536 11.68 236.89 0.929746 249.317 0.0556011C261.753 -0.810138 272.521 8.53648 273.389 20.9426C274.256 33.3487 264.902 44.099 252.475 44.9732C251.692 45.032 250.909 45.0404 250.151 45.0152C249.646 45.1413 249.343 45.2085 248.913 45.5868C247.634 47.5788 252.163 47.209 249.082 55.9C249.082 55.9 249.065 56.8582 248.72 57.808C248.475 61.1449 247.196 71.0378 247.01 76.2995C247.667 77.0644 247.852 77.4342 247.777 79.2834C247.482 81.7881 246.909 87.9155 245.983 91.8492C245.2 95.2197 243.819 95.8585 242.708 96.6822C241.151 103.659 240.738 109.441 236.73 117.914C236.368 124.335 235.914 126.084 234.567 129.219C234.415 138.675 235.072 140.087 228.681 155.057C227.031 162.058 228.597 166.908 230.34 174.187C232.125 181.668 237.067 184.794 237.8 192.451C239.534 210.489 239.096 222.769 235.223 236.915L238.608 244.917C242.809 246.842 253.224 252.095 247.448 260.416C255.581 264.686 267.874 269.216 278.011 277.874C282.086 281.261 286.397 284.959 290.261 289.297C297.62 290.44 296.837 291.028 302.293 294.373C318.332 304.191 344.062 323.666 358.973 337.459C361.541 338.955 362.585 340.031 364.664 341.123C364.992 341.745 365.077 341.888 365.001 342.056C364.285 343.855 364.319 343.905 363.671 345.343C364.479 346.234 365.978 347.057 366.87 347.839C367.712 348.1 367.712 347.696 369.143 347.343C371.012 349.091 373.336 350.504 374.161 350.419C376.696 349.781 376.266 350.302 378.413 347.906C379.188 347.116 380.476 347.915 380.476 347.915C381.284 346.973 383.01 345.091 385.317 343.729C387.161 342.645 390.672 342.527 390.672 342.527C391.851 342.535 391.632 343.746 391.522 344.132C390.192 344.813 387.371 345.57 385.797 346.738C382.353 350.293 379.651 355.093 379.651 355.093C386.588 354.143 390.849 355.866 396.624 355.202C399.773 355.017 402.106 355.219 405.414 352.832C405.414 352.832 408.597 350.571 411.443 349.369C414.213 348.167 416.84 348.806 419.273 350.571C420.99 352.512 422.034 352.521 419.416 355.261C418.473 356.32 417.101 357.513 415.358 359.228C412.293 362.246 408.176 366.272 403.907 369.6C399.588 372.971 394.688 375.988 391.623 377.375C383.903 382.914 385.721 381.468 379.651 386.957C378.885 387.638 376.847 388.865 375.862 389.521C373.471 391.092 372.722 389.781 371.156 386.907C371.156 386.907 370.44 385.831 369.261 383.536C367.973 381.031 367.005 378.174 367.4 378.216C365.961 378.031 359.486 370.458 359.469 368.827C358.097 368.516 352.262 362.868 352.052 361.792L346.874 357.648C340.955 358.875 339.599 355.202 323.956 344.132C322.171 344.099 319.418 343.141 315.469 340.215C308.414 334.576 291.491 321.808 288.619 320.354C285.538 318.791 281.859 317.311 279.594 315.445C276.209 314.823 274.357 314.47 272.665 314C270.939 313.529 269.364 312.915 264.986 312.327C257.863 311.444 250.471 308.494 243.432 304.981C240.098 303.401 237.202 302.602 234.331 301.366C227.898 298.652 222.384 296.214 218.106 295.222C216.473 295.063 208.719 292.743 204.652 290.372C203.238 289.65 202.429 288.952 201.503 288.742C199.365 288.254 198.001 289.095 197.033 289.414C191.821 292.129 186.938 294.466 182.425 296.895C178.223 299.139 174.359 301.467 170.259 303.821C166.562 305.956 162.294 307.965 157.907 310.049C157.907 310.049 145.396 316.311 138.559 318.749C132.632 323.582 120.508 331.945 113.107 336.089C109.445 337.828 102.322 342.334 99.0383 343.334C97.1608 344.838 90.4926 349.596 85.2641 353.513C81.2227 356.53 78.1749 359.068 78.1749 359.068C75.8259 361.17 75.9858 362.162 71.5319 360.27C70.2943 361.287 69.3344 361.918 68.543 362.498C65.3184 364.834 65.0489 364.271 63.8702 364.204C61.6222 366.146 61.3444 365.137 59.3826 367.373C58.0945 369.365 59.4163 368.886 56.6968 369.852C56.1243 370.071 55.8549 370.769 55.4086 371.147C53.2196 372.946 53.2112 378.022 47.9742 378.384C44.9432 380.544 45.7178 383.149 43.4025 383.04C43.5456 385.276 39.3022 388.546 38.536 388.537C31.8594 390.84 31.3963 385.94 23.381 389.596C22.3454 390.067 20.8215 391.378 18.8176 391.756C15.2899 392.42 11.038 391.723 8.43642 389.714C4.34456 386.57 0.581055 380.493 0.581055 380.493C-0.715543 377.425 0.0337895 375.492 4.09197 372.592C5.78429 371.517 6.09581 370.718 8.93317 370.525C10.3476 369.995 9.96034 370.811 12.4778 369.903C13.9343 369.382 13.9343 369.751 16.8811 369.499C17.5547 369.045 18.5061 368.886 19.769 368.474C22.0928 367.709 24.3576 366.852 24.3576 366.852C24.3576 366.852 24.947 366.255 27.1866 366.473C29.081 365.7 31.0259 364.549 32.0194 364.196C31.7668 361.203 32.0867 361.346 33.4759 360.136C35.2103 358.648 35.5218 358.892 36.81 359.808C37.3573 359.497 37.6183 359.388 37.5594 358.934C37.3489 357.379 36.0102 356.639 36.4143 353.21C35.8165 351.832 34.9409 350.134 35.1346 349.108C35.4208 347.999 35.6902 347.469 36.3638 347.116C37.0795 346.738 37.3152 347.251 37.6941 347.679C38.376 348.478 38.9317 350.831 38.9317 350.831C39.1759 353.487 40.001 356.925 42.6279 354.984C44.1771 353.412 44.4802 349.234 47.6375 350.125L49.8939 352.084C51.8051 350.285 51.8977 350.285 53.0428 349.562C53.0428 349.562 51.2494 347.755 52.8239 346.343C53.9016 345.385 55.1982 344.704 57.5051 342.149C63.8365 335.164 67.0864 332.079 73.9399 326.448C87.6047 315.227 103.147 307.359 113.023 303.451C116.248 299.366 119.38 296.66 126.528 295.97C135.023 281.648 151.298 268.855 155.028 266.813C158.067 261.316 159.389 261.896 163.363 260.794C166.512 258.273 167.228 258.273 168.642 255.642C170.014 250.204 165.485 235.68 177.045 234.948C179.503 231.485 178.889 232.317 181.625 229.039C179.773 224.475 179.006 220.659 178.501 217.373C178.409 216.995 173.913 213.826 175.184 209.691C173.273 207.421 169.695 202.117 168.583 199.638C168.07 199.646 167.649 199.453 167.084 199.377C166.504 199.285 165.771 199.319 164.963 199.251C163.161 203.891 161.199 204.236 157.991 205.261C152.275 217.432 150.262 222.576 134.08 232.637C127.656 239.815 125.602 247.817 125.635 247.699C124.532 250.069 124.92 253.389 125.501 255.171C124.659 257.802 124.878 258.063 124.878 258.063C125.231 259.055 126.149 260.374 127.277 260.652C129.222 261.164 131.167 261.08 131.049 263.24C130.788 265.947 127.235 265.501 125.551 265.199C119.077 264.173 121.123 259.962 116.98 261.366C113.806 263.434 112.619 269.553 107.441 268.754C106.759 268.3 106.969 266.964 107.433 265.997C108.157 264.493 109.445 263.24 108.679 262.677C105.302 263.753 101.935 264.854 98.5668 265.964C95.3927 266.829 91.9239 265.249 95.0391 263.165C96.4872 262.602 98.5668 261.896 101.118 260.265C101.118 260.265 102.431 258.475 99.9055 259.374C97.1439 260.357 93.0773 260.971 90.1558 260.652C90.1558 260.652 84.1022 259.861 83.3276 259.382C82.5446 258.912 81.8289 257.037 83.7233 257.054C86.1229 257.071 92.1175 256.373 96.7735 255.129C99.0215 254.255 103.29 251.734 105.681 250.548C105.681 250.548 108.283 246.766 109.706 246.026C112.089 243.286 114.109 241.664 116.222 238.857C118.285 234.604 120.424 227.871 127.26 217.449C130.418 212.641 134.35 207.043 139.292 202.042C139.292 202.042 140.572 194.032 147.004 188.333C148.427 184.996 150.582 181.062 152.704 177.423C153.529 176.028 154.312 174.809 155.104 173.481C157.099 170.354 159.195 164.538 166.967 163.621C166.967 163.621 170.292 161.167 171.564 159.427C173.559 157.729 173.104 155.09 174.721 153.224C172.246 150.812 165.914 146.281 165.3 139.978C164.643 133.295 167.034 127.798 171.075 123.722C175.563 119.242 180.295 116.998 186.045 117.342C193.227 118.41 194.582 120.78 196.864 123.133C199.062 125.361 199.878 123.932 200.804 126.538C206.824 128.135 206.496 127.429 206.445 131.858C207.372 133.102 208.921 134.262 208.904 136.842C210.925 132.648 211.329 131.875 216.734 127.26C218.014 123.512 218.881 119.822 220.001 116.073C221.053 112.602 222.367 109.038 223.377 106.357C222.299 98.7751 224.514 97.5227 227.46 90.8826C226.938 89.9664 227.048 89.7058 227.267 88.2097C228.412 83.8138 230.205 78.0058 231.274 74.215C231.274 74.215 231.628 72.7105 233.186 72.5928C234.533 67.8018 236.562 58.8754 236.899 57.0515C238.288 52.0336 237.395 50.4282 236.326 47.604C235.981 46.6794 236.141 45.3598 235.552 44.3344C233.868 41.4094 232.058 37.6102 230.828 34.8953C230.028 33.1638 228.774 26.6498 228.774 26.6498C227.696 23.3213 228.631 26.6498 228.631 26.6498" fill="black"/>
</svg>
