<?xml version="1.0" encoding="UTF-8"?><svg id="Layer_1" xmlns="http://www.w3.org/2000/svg" viewBox="0 0 500 500"><defs><style>.cls-1{fill:#d9d9d9;}</style></defs><path class="cls-1" d="m271.61,48.58c-.19-1.04-.32-2.08-.39-3.13-1.03-14.76,10.08-27.55,24.84-28.59,14.77-1.03,27.56,10.09,28.59,24.85,1.03,14.76-10.08,27.55-24.84,28.59-.93.07-1.86.08-2.76.05-.6.15-.96.23-1.47.68-1.52,2.37,3.86,1.93.2,12.27,0,0-.02,1.14-.43,2.27-.29,3.97-1.81,15.74-2.03,22,.78.91,1,1.35.91,3.55-.35,2.98-1.03,10.27-2.13,14.95-.93,4.01-2.57,4.77-3.89,5.75-1.85,8.3-2.34,15.18-7.1,25.26-.43,7.64-.97,9.72-2.57,13.45-.18,11.25.6,12.93-6.99,30.74-1.96,8.33-.1,14.1,1.97,22.76,2.12,8.9,7.99,12.62,8.86,21.73,2.06,21.46,1.54,36.07-3.06,52.9l4.02,9.52c4.99,2.29,17.36,8.54,10.5,18.44,9.66,5.08,24.26,10.47,36.3,20.77,4.84,4.03,9.96,8.43,14.55,13.59,8.74,1.36,7.81,2.06,14.29,6.04,19.05,11.68,49.61,34.85,67.32,51.26,3.05,1.78,4.29,3.06,6.76,4.36.39.74.49.91.4,1.11-.85,2.14-.81,2.2-1.58,3.91.96,1.06,2.74,2.04,3.8,2.97,1,.31,1-.17,2.7-.59,2.22,2.08,4.98,3.76,5.96,3.66,3.01-.76,2.5-.14,5.05-2.99.92-.94,2.45.01,2.45.01.96-1.12,3.01-3.36,5.75-4.98,2.19-1.29,6.36-1.43,6.36-1.43,1.4.01,1.14,1.45,1.01,1.91-1.58.81-4.93,1.71-6.8,3.1-4.09,4.23-7.3,9.94-7.3,9.94,8.24-1.13,13.3.92,20.16.13,3.74-.22,6.51.02,10.44-2.82,0,0,3.78-2.69,7.16-4.12,3.29-1.43,6.41-.67,9.3,1.43,2.04,2.31,3.28,2.32.17,5.58-1.12,1.26-2.75,2.68-4.82,4.72-3.64,3.59-8.53,8.38-13.6,12.34-5.13,4.01-10.95,7.6-14.59,9.25-9.17,6.59-7.01,4.87-14.22,11.4-.91.81-3.33,2.27-4.5,3.05-2.84,1.87-3.73.31-5.59-3.11,0,0-.85-1.28-2.25-4.01-1.53-2.98-2.68-6.38-2.21-6.33-1.71-.22-9.4-9.23-9.42-11.17-1.63-.37-8.56-7.09-8.81-8.37l-6.15-4.93c-7.03,1.46-8.64-2.91-27.22-16.08-2.12-.04-5.39-1.18-10.08-4.66-8.38-6.71-28.48-21.9-31.89-23.63-3.66-1.86-8.03-3.62-10.72-5.84-4.02-.74-6.22-1.16-8.23-1.72-2.05-.56-3.92-1.29-9.12-1.99-8.46-1.05-17.24-4.56-25.6-8.74-3.96-1.88-7.4-2.83-10.81-4.3-7.64-3.23-14.19-6.13-19.27-7.31-1.94-.19-11.15-2.95-15.98-5.77-1.68-.86-2.64-1.69-3.74-1.94-2.54-.58-4.16.42-5.31.8-6.19,3.23-11.99,6.01-17.35,8.9-4.99,2.67-9.58,5.44-14.45,8.24-4.39,2.54-9.46,4.93-14.67,7.41,0,0-14.86,7.45-22.98,10.35-7.04,5.75-21.44,15.7-30.23,20.63-4.35,2.07-12.81,7.43-16.71,8.62-2.23,1.79-10.15,7.45-16.36,12.11-4.8,3.59-8.42,6.61-8.42,6.61-2.79,2.5-2.6,3.68-7.89,1.43-1.47,1.21-2.61,1.96-3.55,2.65-3.83,2.78-4.15,2.11-5.55,2.03-2.67,2.31-3,1.11-5.33,3.77-1.53,2.37.04,1.8-3.19,2.95-.68.26-1,1.09-1.53,1.54-2.6,2.14-2.61,8.18-8.83,8.61-3.6,2.57-2.68,5.67-5.43,5.54.17,2.66-4.87,6.55-5.78,6.54-7.93,2.74-8.48-3.09-18,1.26-1.23.56-3.04,2.12-5.42,2.57-4.19.79-9.24-.04-12.33-2.43-4.86-3.74-9.33-10.97-9.33-10.97-1.54-3.65-.65-5.95,4.17-9.4,2.01-1.28,2.38-2.23,5.75-2.46,1.68-.63,1.22.34,4.21-.74,1.73-.62,1.73-.18,5.23-.48.8-.54,1.93-.73,3.43-1.22,2.76-.91,5.45-1.93,5.45-1.93,0,0,.7-.71,3.36-.45,2.25-.92,4.56-2.29,5.74-2.71-.3-3.56.08-3.39,1.73-4.83,2.06-1.77,2.43-1.48,3.96-.39.65-.37.96-.5.89-1.04-.25-1.85-1.84-2.73-1.36-6.81-.71-1.64-1.75-3.66-1.52-4.88.34-1.32.66-1.95,1.46-2.37.85-.45,1.13.16,1.58.67.81.95,1.47,3.75,1.47,3.75.29,3.16,1.27,7.25,4.39,4.94,1.84-1.87,2.2-6.84,5.95-5.78l2.68,2.33c2.27-2.14,2.38-2.14,3.74-3,0,0-2.13-2.15-.26-3.83,1.28-1.14,2.82-1.95,5.56-4.99,7.52-8.31,11.38-11.98,19.52-18.68,16.23-13.35,34.69-22.71,46.42-27.36,3.83-4.86,7.55-8.08,16.04-8.9,10.09-17.04,29.42-32.26,33.85-34.69,3.61-6.54,5.18-5.85,9.9-7.16,3.74-3,4.59-3,6.27-6.13,1.63-6.47-3.75-23.75,9.98-24.62,2.92-4.12,2.19-3.13,5.44-7.03-2.2-5.43-3.11-9.97-3.71-13.88-.11-.45-5.45-4.22-3.94-9.14-2.27-2.7-6.52-9.01-7.84-11.96-.61.01-1.11-.22-1.78-.31-.69-.11-1.56-.07-2.52-.15-2.14,5.52-4.47,5.93-8.28,7.15-6.79,14.48-9.18,20.6-28.4,32.57-7.63,8.54-10.07,18.06-10.03,17.92-1.31,2.82-.85,6.77-.16,8.89-1,3.13-.74,3.44-.74,3.44.42,1.18,1.51,2.75,2.85,3.08,2.31.61,4.62.51,4.48,3.08-.31,3.22-4.53,2.69-6.53,2.33-7.69-1.22-5.26-6.23-10.18-4.56-3.77,2.46-5.18,9.74-11.33,8.79-.81-.54-.56-2.13-.01-3.28.86-1.79,2.39-3.28,1.48-3.95-4.01,1.28-8.01,2.59-12.01,3.91-3.77,1.03-7.89-.85-4.19-3.33,1.72-.67,4.19-1.51,7.22-3.45,0,0,1.56-2.13-1.44-1.06-3.28,1.17-8.11,1.9-11.58,1.52,0,0-7.19-.94-8.11-1.51-.93-.56-1.78-2.79.47-2.77,2.85.02,9.97-.81,15.5-2.29,2.67-1.04,7.74-4.04,10.58-5.45,0,0,3.09-4.5,4.78-5.38,2.83-3.26,5.23-5.19,7.74-8.53,2.45-5.06,4.99-13.07,13.11-25.47,3.75-5.72,8.42-12.38,14.29-18.33,0,0,1.52-9.53,9.16-16.31,1.69-3.97,4.25-8.65,6.77-12.98.98-1.66,1.91-3.11,2.85-4.69,2.37-3.72,4.86-10.64,14.09-11.73,0,0,3.95-2.92,5.46-4.99,2.37-2.02,1.83-5.16,3.75-7.38-2.94-2.87-10.46-8.26-11.19-15.76-.78-7.95,2.06-14.49,6.86-19.34,5.33-5.33,10.95-8,17.78-7.59,8.53,1.27,10.14,4.09,12.85,6.89,2.61,2.65,3.58.95,4.68,4.05,7.15,1.9,6.76,1.06,6.7,6.33,1.1,1.48,2.94,2.86,2.92,5.93,2.4-4.99,2.88-5.91,9.3-11.4,1.52-4.46,2.55-8.85,3.88-13.31,1.25-4.13,2.81-8.37,4.01-11.56-1.28-9.02,1.35-10.51,4.85-18.41-.62-1.09-.49-1.4-.23-3.18,1.36-5.23,3.49-12.14,4.76-16.65,0,0,.42-1.79,2.27-1.93,1.6-5.7,4.01-16.32,4.41-18.49,1.65-5.97.59-7.88-.68-11.24-.41-1.1-.22-2.67-.92-3.89-2-3.48-4.15-8-5.61-11.23-.95-2.06-2.44-9.81-2.44-9.81-1.28-3.96-.17,0-.17,0"/></svg>