<svg width="420" height="151" viewBox="0 0 420 151" fill="none" xmlns="http://www.w3.org/2000/svg">
<path fill-rule="evenodd" clip-rule="evenodd" d="M53.8136 6.71392C26.4712 38.7682 0.27962 78.5255 0.00241568 108.239C-0.106786 119.424 3.48007 129.183 12.0482 136.576C24.3712 147.224 37.9794 150.975 51.5036 151C71.2691 151.025 90.8918 143.054 106.264 136.92C132.153 126.59 418.236 2.47638 418.236 2.47638C420.983 1.09184 420.479 -0.636734 417.018 0.235946C415.632 0.579984 105.575 84.5084 105.575 84.5084C99.7119 86.1698 93.6302 87.0425 87.5318 87.0845C63.709 87.2355 42.4903 74.0026 42.6583 46.1608C42.7255 35.3194 46.0687 22.1704 53.7884 6.70554L53.8136 6.71392Z" fill="black"/>
</svg>
