<svg width="421" height="136" viewBox="0 0 421 136" fill="none" xmlns="http://www.w3.org/2000/svg">
<path d="M0.00840034 117.745L9.34117 106.917C18.6739 116.065 31.3753 122.046 45.1938 122.046C62.0029 122.046 71.7137 114.016 71.7137 102.81C71.7137 89.7386 62.1877 86.0004 49.8644 80.7754L32.1229 72.9295C19.9844 68.0741 5.79623 59.4806 5.79623 41.3695C5.79623 23.2583 22.6053 8.87695 45.9414 8.87695C61.2553 8.87695 74.6958 15.0428 83.659 24.006L75.4434 34.0948C67.4127 26.9965 58.0799 22.7039 45.3786 22.7039C31.1904 22.7039 21.6645 29.4242 21.6645 40.4454C21.6645 52.2059 33.0553 56.5069 43.5137 60.6146L60.6924 68.2673C75.8214 74.24 87.7667 82.8335 87.7667 100.945C87.7667 120.366 71.3357 135.865 44.4462 135.865C26.5199 135.865 11.0212 128.767 0 117.754L0.00840034 117.745Z" fill="#161616"/>
<path d="M95.2422 88.0513C95.2422 58.5494 117.276 40.623 141.553 40.623C167.695 40.623 183.009 57.6169 183.009 83.1959C183.009 86.7409 182.639 90.1094 182.261 92.5287H105.516V80.575H173.113L169.19 84.8676C169.19 63.3963 158.547 52.7447 141.923 52.7447C125.299 52.7447 110.548 65.446 110.548 88.0345C110.548 110.623 125.861 123.518 146.031 123.518C156.859 123.518 165.452 120.157 173.668 114.924L179.271 125.004C170.308 130.977 158.732 135.832 144.166 135.832C116.898 135.832 95.2422 118.276 95.2422 88.0261V88.0513Z" fill="#161616"/>
<path d="M190.293 88.0513C190.293 58.5494 212.327 40.623 236.604 40.623C262.746 40.623 278.06 57.6169 278.06 83.1959C278.06 86.7409 277.69 90.1094 277.312 92.5287H200.567V80.575H268.164L264.241 84.8676C264.241 63.3963 253.598 52.7447 236.974 52.7447C220.349 52.7447 205.598 65.446 205.598 88.0345C205.598 110.623 220.912 123.518 241.081 123.518C251.909 123.518 260.503 120.157 268.718 114.924L274.322 125.004C265.358 130.977 253.783 135.832 239.217 135.832C211.949 135.832 190.293 118.276 190.293 88.0261V88.0513Z" fill="#161616"/>
<path d="M283.856 88.4288C283.856 58.9268 303.462 40.6225 324.942 40.6225C335.77 40.6225 344.179 44.9151 352.21 52.1982H352.579L351.832 35.5823V0.662109H367.33V133.623H354.629L353.318 121.669H352.756C345.288 129.322 334.451 135.857 323.06 135.857C299.531 135.857 283.848 118.678 283.848 88.4288H283.856ZM351.832 109.346V64.1518C343.616 56.4991 335.955 53.6934 328.117 53.6934C312.434 53.6934 299.733 67.512 299.733 88.2356C299.733 108.959 309.813 122.786 326.437 122.786C335.401 122.786 343.801 118.3 351.832 109.337V109.346Z" fill="#161616"/>
<path d="M402.168 37.6655C412.031 37.6655 420.027 29.6697 420.027 19.8064C420.027 9.94307 412.031 1.94727 402.168 1.94727C392.304 1.94727 384.309 9.94307 384.309 19.8064C384.309 29.6697 392.304 37.6655 402.168 37.6655Z" fill="#161616"/>
</svg>
