<svg width="421" height="136" viewBox="0 0 421 136" fill="none" xmlns="http://www.w3.org/2000/svg">
<path d="M0.00840034 117.88L9.34117 107.052C18.6739 116.2 31.3753 122.181 45.1938 122.181C62.0029 122.181 71.7137 114.15 71.7137 102.944C71.7137 89.8734 62.1877 86.1352 49.8644 80.9102L32.1229 73.0643C19.9844 68.2089 5.79623 59.6153 5.79623 41.5042C5.79623 23.3931 22.6053 9.01172 45.9414 9.01172C61.2553 9.01172 74.6958 15.1776 83.659 24.1407L75.4434 34.2295C67.4127 27.1312 58.0799 22.8387 45.3786 22.8387C31.1904 22.8387 21.6645 29.5589 21.6645 40.5802C21.6645 52.3406 33.0553 56.6416 43.5137 60.7494L60.6924 68.4021C75.8214 74.3747 87.7667 82.9683 87.7667 101.079C87.7667 120.501 71.3357 136 44.4462 136C26.5199 136 11.0212 128.901 0 117.888L0.00840034 117.88Z" fill="black"/>
<path d="M95.2422 88.1861C95.2422 58.6841 117.276 40.7578 141.553 40.7578C167.695 40.7578 183.009 57.7517 183.009 83.3307C183.009 86.8757 182.639 90.2442 182.261 92.6635H105.516V80.7098H173.113L169.19 85.0024C169.19 63.5311 158.547 52.8795 141.923 52.8795C125.299 52.8795 110.548 65.5808 110.548 88.1693C110.548 110.758 125.861 123.652 146.031 123.652C156.859 123.652 165.452 120.292 173.668 115.059L179.271 125.139C170.308 131.112 158.732 135.967 144.166 135.967C116.898 135.967 95.2422 118.411 95.2422 88.1609V88.1861Z" fill="black"/>
<path d="M190.293 88.1861C190.293 58.6841 212.327 40.7578 236.604 40.7578C262.746 40.7578 278.06 57.7517 278.06 83.3307C278.06 86.8757 277.69 90.2442 277.312 92.6635H200.567V80.7098H268.164L264.241 85.0024C264.241 63.5311 253.598 52.8795 236.974 52.8795C220.349 52.8795 205.598 65.5808 205.598 88.1693C205.598 110.758 220.912 123.652 241.081 123.652C251.909 123.652 260.503 120.292 268.718 115.059L274.322 125.139C265.358 131.112 253.783 135.967 239.217 135.967C211.949 135.967 190.293 118.411 190.293 88.1609V88.1861Z" fill="black"/>
<path d="M283.856 88.5636C283.856 59.0616 303.462 40.7573 324.942 40.7573C335.77 40.7573 344.179 45.0498 352.21 52.3329H352.579L351.832 35.7171V0.796875H367.33V133.757H354.629L353.318 121.804H352.756C345.288 129.456 334.451 135.992 323.06 135.992C299.531 135.992 283.848 118.813 283.848 88.5636H283.856ZM351.832 109.48V64.2866C343.616 56.6339 335.955 53.8282 328.117 53.8282C312.434 53.8282 299.733 67.6467 299.733 88.3704C299.733 109.094 309.813 122.921 326.437 122.921C335.401 122.921 343.801 118.435 351.832 109.472V109.48Z" fill="black"/>
<path d="M402.168 37.8003C412.031 37.8003 420.027 29.8045 420.027 19.9412C420.027 10.0778 412.031 2.08203 402.168 2.08203C392.304 2.08203 384.309 10.0778 384.309 19.9412C384.309 29.8045 392.304 37.8003 402.168 37.8003Z" fill="black"/>
</svg>
