<?xml version="1.0" encoding="UTF-8"?><svg id="LOGOS" xmlns="http://www.w3.org/2000/svg" viewBox="0 0 500 500"><defs><style>.cls-1{fill:#00370c;}</style></defs><path class="cls-1" d="m0,308.91l11.11-12.89c11.11,10.89,26.23,18.01,42.68,18.01,20.01,0,31.57-9.56,31.57-22.9,0-15.56-11.34-20.01-26.01-26.23l-21.12-9.34c-14.45-5.78-31.34-16.01-31.34-37.57s20.01-38.68,47.79-38.68c18.23,0,34.23,7.34,44.9,18.01l-9.78,12.01c-9.56-8.45-20.67-13.56-35.79-13.56-16.89,0-28.23,8-28.23,21.12,0,14,13.56,19.12,26.01,24.01l20.45,9.11c18.01,7.11,32.23,17.34,32.23,38.9,0,23.12-19.56,41.57-51.57,41.57-21.34,0-39.79-8.45-52.91-21.56Z"/><path class="cls-1" d="m113.37,273.56c0-35.12,26.23-56.46,55.13-56.46,31.12,0,49.35,20.23,49.35,50.68,0,4.22-.44,8.23-.89,11.11h-91.36v-14.23h80.47l-4.67,5.11c0-25.56-12.67-38.24-32.46-38.24s-37.35,15.12-37.35,42.01,18.23,42.24,42.24,42.24c12.89,0,23.12-4,32.9-10.23l6.67,12c-10.67,7.11-24.45,12.89-41.79,12.89-32.46,0-58.24-20.9-58.24-56.91Z"/><path class="cls-1" d="m226.52,273.56c0-35.12,26.23-56.46,55.13-56.46,31.12,0,49.35,20.23,49.35,50.68,0,4.22-.44,8.23-.89,11.11h-91.36v-14.23h80.47l-4.67,5.11c0-25.56-12.67-38.24-32.46-38.24s-37.35,15.12-37.35,42.01,18.23,42.24,42.24,42.24c12.89,0,23.12-4,32.9-10.23l6.67,12c-10.67,7.11-24.45,12.89-41.79,12.89-32.46,0-58.24-20.9-58.24-56.91Z"/><path class="cls-1" d="m337.9,274.01c0-35.12,23.34-56.91,48.91-56.91,12.89,0,22.9,5.11,32.46,13.78h.44l-.89-19.78v-41.57h18.45v158.28h-15.12l-1.56-14.23h-.67c-8.89,9.11-21.79,16.89-35.35,16.89-28.01,0-46.68-20.45-46.68-56.46Zm80.92,24.9v-53.8c-9.78-9.11-18.9-12.45-28.23-12.45-18.67,0-33.79,16.45-33.79,41.12s12,41.13,31.79,41.13c10.67,0,20.67-5.34,30.23-16.01Z"/><circle class="cls-1" cx="478.74" cy="192.32" r="21.26"/></svg>