<svg width="421" height="136" viewBox="0 0 421 136" fill="none" xmlns="http://www.w3.org/2000/svg">
<path d="M0.0630878 117.88L9.39586 107.052C18.7286 116.2 31.4299 122.181 45.2485 122.181C62.0576 122.181 71.7684 114.15 71.7684 102.944C71.7684 89.8734 62.2424 86.1352 49.9191 80.9102L32.1776 73.0643C20.0391 68.2089 5.85092 59.6153 5.85092 41.5042C5.85092 23.3931 22.66 9.01172 45.9961 9.01172C61.3099 9.01172 74.7505 15.1776 83.7136 24.1407L75.4981 34.2295C67.4674 27.1312 58.1346 22.8387 45.4333 22.8387C31.2451 22.8387 21.7192 29.5589 21.7192 40.5802C21.7192 52.3406 33.11 56.6416 43.5684 60.7494L60.7471 68.4021C75.8761 74.3747 87.8214 82.9683 87.8214 101.079C87.8214 120.501 71.3903 136 44.5009 136C26.5745 136 11.0759 128.901 0.0546875 117.888L0.0630878 117.88Z" fill="white"/>
<path d="M95.2969 88.1861C95.2969 58.6841 117.331 40.7578 141.608 40.7578C167.75 40.7578 183.064 57.7517 183.064 83.3307C183.064 86.8757 182.694 90.2442 182.316 92.6635H105.57V80.7098H173.168L169.245 85.0024C169.245 63.5311 158.602 52.8795 141.978 52.8795C125.353 52.8795 110.602 65.5808 110.602 88.1693C110.602 110.758 125.916 123.652 146.085 123.652C156.913 123.652 165.507 120.292 173.722 115.059L179.325 125.139C170.362 131.112 158.787 135.967 144.22 135.967C116.953 135.967 95.2969 118.411 95.2969 88.1609V88.1861Z" fill="white"/>
<path d="M190.348 88.1861C190.348 58.6841 212.382 40.7578 236.659 40.7578C262.801 40.7578 278.114 57.7517 278.114 83.3307C278.114 86.8757 277.745 90.2442 277.367 92.6635H200.621V80.7098H268.219L264.296 85.0024C264.296 63.5311 253.653 52.8795 237.028 52.8795C220.404 52.8795 205.653 65.5808 205.653 88.1693C205.653 110.758 220.967 123.652 241.136 123.652C251.964 123.652 260.558 120.292 268.773 115.059L274.376 125.139C265.413 131.112 253.837 135.967 239.271 135.967C212.004 135.967 190.348 118.411 190.348 88.1609V88.1861Z" fill="white"/>
<path d="M283.911 88.5636C283.911 59.0616 303.517 40.7573 324.997 40.7573C335.825 40.7573 344.234 45.0498 352.264 52.3329H352.634L351.886 35.7171V0.796875H367.385V133.757H354.684L353.373 121.804H352.81C345.342 129.456 334.506 135.992 323.115 135.992C299.586 135.992 283.902 118.813 283.902 88.5636H283.911ZM351.886 109.48V64.2866C343.671 56.6339 336.01 53.8282 328.172 53.8282C312.489 53.8282 299.787 67.6467 299.787 88.3704C299.787 109.094 309.868 122.921 326.492 122.921C335.455 122.921 343.856 118.435 351.886 109.472V109.48Z" fill="white"/>
<path d="M402.222 37.8003C412.086 37.8003 420.082 29.8045 420.082 19.9412C420.082 10.0778 412.086 2.08203 402.222 2.08203C392.359 2.08203 384.363 10.0778 384.363 19.9412C384.363 29.8045 392.359 37.8003 402.222 37.8003Z" fill="white"/>
</svg>
