<svg width="421" height="136" viewBox="0 0 421 136" fill="none" xmlns="http://www.w3.org/2000/svg">
<path d="M0.0669941 117.562L9.39977 106.734C18.7325 115.882 31.4338 121.863 45.2524 121.863C62.0615 121.863 71.7723 113.832 71.7723 102.626C71.7723 89.555 62.2463 85.8168 49.923 80.5918L32.1815 72.7459C20.043 67.8905 5.85483 59.297 5.85483 41.1859C5.85483 23.0747 22.6639 8.69336 46 8.69336C61.3138 8.69336 74.7544 14.8592 83.7175 23.8224L75.502 33.9112C67.4713 26.8129 58.1385 22.5203 45.4372 22.5203C31.249 22.5203 21.7231 29.2406 21.7231 40.2618C21.7231 52.0223 33.1139 56.3233 43.5723 60.431L60.751 68.0837C75.88 74.0564 87.8253 82.6499 87.8253 100.761C87.8253 120.183 71.3942 135.681 44.5048 135.681C26.5785 135.681 11.0798 128.583 0.0585938 117.57L0.0669941 117.562Z" fill="#D9D9D9"/>
<path d="M95.3047 87.8677C95.3047 58.3658 117.339 40.4395 141.616 40.4395C167.758 40.4395 183.071 57.4333 183.071 83.0123C183.071 86.5573 182.702 89.9258 182.324 92.3451H105.578V80.3914H173.176L169.253 84.684C169.253 63.2127 158.61 52.5611 141.985 52.5611C125.361 52.5611 110.61 65.2624 110.61 87.851C110.61 110.439 125.924 123.334 146.093 123.334C156.921 123.334 165.515 119.974 173.73 114.74L179.333 124.821C170.37 130.793 158.794 135.649 144.228 135.649C116.961 135.649 95.3047 118.092 95.3047 87.8425V87.8677Z" fill="#D9D9D9"/>
<path d="M190.352 87.8677C190.352 58.3658 212.386 40.4395 236.663 40.4395C262.804 40.4395 278.118 57.4333 278.118 83.0123C278.118 86.5573 277.749 89.9258 277.371 92.3451H200.625V80.3914H268.223L264.3 84.684C264.3 63.2127 253.656 52.5611 237.032 52.5611C220.408 52.5611 205.657 65.2624 205.657 87.851C205.657 110.439 220.971 123.334 241.14 123.334C251.968 123.334 260.562 119.974 268.777 114.74L274.38 124.821C265.417 130.793 253.841 135.649 239.275 135.649C212.008 135.649 190.352 118.092 190.352 87.8425V87.8677Z" fill="#D9D9D9"/>
<path d="M283.915 88.2452C283.915 58.7432 303.521 40.4389 325.001 40.4389C335.829 40.4389 344.237 44.7315 352.268 52.0146H352.638L351.89 35.3987V0.478516H367.389V133.439H354.687L353.377 121.485H352.814C345.346 129.138 334.51 135.674 323.119 135.674C299.59 135.674 283.906 118.495 283.906 88.2452H283.915ZM351.89 109.162V63.9682C343.675 56.3155 336.014 53.5098 328.176 53.5098C312.493 53.5098 299.791 67.3284 299.791 88.052C299.791 108.776 309.872 122.603 326.496 122.603C335.459 122.603 343.859 118.117 351.89 109.154V109.162Z" fill="#D9D9D9"/>
<path d="M402.226 37.4819C412.09 37.4819 420.085 29.4861 420.085 19.6228C420.085 9.75948 412.09 1.76367 402.226 1.76367C392.363 1.76367 384.367 9.75948 384.367 19.6228C384.367 29.4861 392.363 37.4819 402.226 37.4819Z" fill="#D9D9D9"/>
</svg>
