<svg width="874" height="317" viewBox="0 0 874 317" fill="none" xmlns="http://www.w3.org/2000/svg">
<path d="M511.278 190.755C511.278 256.032 475.548 264.278 439.817 264.278C378.664 264.278 365.609 232.67 365.609 188.007V60.8883H342.934V48.52H428.824V60.8883H404.774V183.884C404.774 227.173 415.768 249.161 447.376 249.161C478.983 249.161 494.787 233.357 494.787 188.007V60.8883H472.112V48.52H533.266V60.8883H512.652L511.278 190.755ZM571.057 249.161V60.8883H547.008V48.52H641.831C682.371 48.52 702.297 71.1951 702.297 97.9931C702.297 126.852 676.187 142.656 653.512 147.466C698.174 151.589 710.543 180.448 710.543 201.749C710.543 245.038 673.438 261.529 637.708 261.529H545.634V249.161H571.057ZM663.818 100.742C663.818 80.8149 653.512 60.8883 630.837 60.8883H606.1V142.656H628.088C652.825 142.656 663.818 122.73 663.818 100.742ZM672.064 202.436C672.064 174.264 659.696 155.025 631.524 155.025H607.475V249.848H627.401C656.947 249.161 672.064 231.295 672.064 202.436ZM806.052 58.1397C783.377 58.1397 768.948 71.1951 768.948 94.5574C768.948 115.171 791.623 125.478 813.611 133.036C826.666 137.846 843.157 144.03 854.838 154.337C867.206 166.019 874.077 181.822 873.39 201.749C872.703 238.854 846.592 264.278 800.555 264.278C783.377 264.278 756.58 260.155 740.776 251.222L738.714 195.565H752.457C753.831 233.357 771.009 252.596 801.929 252.596C826.666 252.596 840.408 236.105 840.408 210.682C840.408 188.694 822.543 179.761 795.058 170.141C786.126 167.393 768.261 160.522 755.892 148.153C744.899 137.159 739.402 122.73 739.402 108.3C739.402 65.011 770.322 45.7715 808.801 45.7715C823.917 45.7715 846.592 51.2685 860.335 58.8269L861.709 107.613H847.966C845.905 73.2565 830.788 58.1397 806.052 58.1397Z" fill="#161616"/>
<path d="M235.054 91.8096L229.557 96.6195L235.741 116.546L217.876 106.926L211.692 111.736L231.618 122.73L210.318 139.908L204.821 132.35L212.379 126.166L206.882 119.295L199.324 125.479L193.14 117.233L200.698 111.049L195.201 103.491L156.722 135.786L193.827 165.332L200.698 157.087C205.508 157.087 208.943 161.209 211.005 165.332L204.133 173.578L208.256 177.013C217.189 168.768 229.557 163.271 241.925 163.271C268.036 163.271 287.962 184.572 287.962 210.682C287.962 218.928 285.901 228.548 281.091 236.106L287.962 241.603C287.962 246.413 283.152 251.91 278.342 253.284L271.471 247.787C262.539 256.72 250.171 261.53 237.802 261.53C211.692 261.53 191.765 240.916 191.765 214.805C191.765 206.56 194.514 197.627 197.949 190.069L193.14 186.633L186.268 195.566C181.459 194.878 177.336 191.443 175.962 186.633L182.833 179.075L151.912 152.964V194.191H162.219C163.593 196.253 164.281 198.314 164.281 200.376C164.281 202.437 163.593 205.185 162.219 207.247H151.912V212.057C174.587 216.179 193.827 235.419 193.827 258.781C193.827 282.831 175.274 302.07 151.912 306.193V314.438C149.851 315.813 147.103 316.5 144.354 316.5C141.606 316.5 138.17 315.813 136.109 314.438V306.193C112.747 302.757 94.8815 282.831 94.8815 258.781C94.8815 235.419 112.747 216.179 136.109 212.744V207.247H125.115C123.741 205.185 123.053 203.124 123.053 200.376C123.053 197.627 123.741 195.566 125.115 193.504H136.109V152.277L104.501 178.387L111.372 185.946C109.998 190.756 105.875 194.191 101.066 194.878L94.1944 185.946L90.0716 190.069C94.1944 197.627 96.9428 205.873 96.9428 214.805C96.9428 240.916 76.3292 261.53 50.9058 261.53C38.5377 261.53 26.1695 256.72 17.237 247.787L10.3658 253.284C6.24305 251.91 1.43321 246.413 0.746094 241.603L7.61729 236.106C3.49457 228.548 0.746094 219.615 0.746094 210.682C0.746094 184.572 20.6726 163.271 46.7831 163.271C59.1513 163.271 71.5194 168.768 80.452 177.013L84.5747 174.265L77.7035 166.019C79.0777 161.896 83.2004 158.461 88.0103 157.774L94.8815 166.019L131.986 136.473L93.5072 104.178L88.0103 111.736L95.5686 117.92L90.0716 125.479L82.5133 119.295L77.0164 126.166L83.2004 130.976L77.7035 138.534L57.0899 121.356L76.3292 110.362L70.8323 105.552L52.9672 115.172L58.4641 96.6195L52.9672 91.8096L46.096 113.111L24.7953 95.9324L30.2922 89.0611L37.8506 95.2452L44.0346 88.374L36.4763 81.5027L41.9733 74.6315L49.5316 80.1285L55.0285 73.2572L38.5377 60.889C39.9119 55.3919 43.3475 51.2692 48.8445 47.8336L136.109 119.295V71.883H127.176V80.8156H118.244V71.883H109.311V80.8156H100.378V54.0177L120.992 62.9503V55.3919L101.753 47.1464L120.992 39.588V32.7168L100.378 40.9623V13.4773H109.311V23.097H118.244V13.4773H127.176V23.097H136.109V1.79613C138.857 1.109 141.606 0.421875 144.354 0.421875C147.103 0.421875 149.851 1.109 151.912 1.79613V119.295L239.177 47.8336C243.986 51.2692 247.422 55.3919 249.483 60.889L232.993 73.9443L238.489 80.8156L246.048 75.3186L251.545 82.1899L243.986 89.0611L249.483 95.9324L257.042 89.7482L262.539 96.6195L241.238 113.798L235.054 91.8096ZM57.0899 220.989C57.0899 228.548 62.5869 233.358 69.4581 234.045L58.4641 242.29C50.9058 239.542 44.0346 230.609 44.0346 222.364C44.0346 219.615 44.7217 218.241 45.4089 216.179H43.3475C33.0407 216.179 24.7953 206.56 22.7339 196.94L34.415 188.007V191.443C34.415 197.627 40.599 203.124 46.7831 203.124C53.6543 203.124 59.8384 197.627 59.8384 190.756C59.8384 182.51 53.6543 177.013 45.4089 177.013C30.2922 177.013 15.1756 192.13 15.1756 211.37C15.1756 216.867 16.5498 222.364 18.6112 227.173L25.4824 221.676C30.2922 223.738 33.7278 228.548 35.1021 234.045L28.2309 239.542C35.1021 245.039 43.3475 247.787 51.5929 247.787C69.4581 247.787 83.2004 233.358 83.2004 220.989C83.2004 213.431 78.3906 207.247 70.8323 207.247C62.5869 208.621 57.0899 214.118 57.0899 220.989ZM150.538 248.474C150.538 255.346 156.035 260.843 162.906 260.843C167.716 260.843 169.778 258.781 173.213 256.033V270.462C169.778 272.524 166.342 273.211 162.219 273.211C154.661 273.211 148.477 271.149 144.354 264.278C140.231 271.149 133.36 273.211 125.802 273.211C122.366 273.211 118.244 272.524 114.808 270.462V256.033C118.244 259.468 120.305 260.843 125.115 260.843C131.986 260.843 137.483 255.346 137.483 248.474C137.483 241.603 133.36 236.106 125.802 236.106C112.747 236.106 107.25 248.474 107.25 260.155C107.25 276.646 119.618 291.076 135.422 293.825V285.579C138.17 284.205 140.918 284.205 142.98 284.205C145.728 284.205 148.477 284.205 151.225 285.579V293.825C166.342 291.763 179.397 275.959 179.397 260.155C179.397 248.474 174.587 236.106 160.845 236.106C155.348 235.419 150.538 241.603 150.538 248.474ZM228.87 191.443C228.87 197.627 235.741 203.811 241.925 203.811C248.109 203.811 254.293 198.314 254.293 192.13V188.694L265.287 197.627C263.226 208.621 253.606 217.554 242.612 216.867C243.299 218.928 243.299 220.989 243.299 223.051C243.299 231.296 236.428 240.229 228.87 242.977L218.563 234.045C225.434 233.358 230.931 228.548 230.931 220.989C230.931 213.431 224.747 208.621 217.876 208.621C210.318 208.621 205.508 214.805 205.508 222.364C205.508 231.296 216.502 249.161 237.802 249.161C246.048 249.161 254.293 246.413 260.477 240.916L253.606 235.419C254.98 229.922 258.416 225.112 263.226 223.051L270.097 228.548C272.845 223.738 274.22 218.241 274.22 212.744C274.22 197.627 262.539 178.387 243.986 178.387C235.741 178.387 228.87 183.197 228.87 191.443Z" fill="#161616"/>
</svg>
