<svg width="874" height="317" viewBox="0 0 874 317" fill="none" xmlns="http://www.w3.org/2000/svg">
<path d="M510.887 190.95C510.887 256.227 475.157 264.473 439.427 264.473C378.273 264.473 365.218 232.865 365.218 188.202V61.0836H342.543V48.7153H428.433V61.0836H404.384V184.079C404.384 227.368 415.378 249.356 446.985 249.356C478.593 249.356 494.396 233.552 494.396 188.202V61.0836H471.721V48.7153H532.875V61.0836H512.262L510.887 190.95ZM570.667 249.356V61.0836H546.617V48.7153H641.44C681.98 48.7153 701.907 71.3905 701.907 98.1884C701.907 127.048 675.796 142.852 653.121 147.661C697.784 151.784 710.152 180.643 710.152 201.944C710.152 245.233 673.047 261.724 637.317 261.724H545.243V249.356H570.667ZM663.428 100.937C663.428 81.0102 653.121 61.0836 630.446 61.0836H605.71V142.852H627.698C652.434 142.852 663.428 122.925 663.428 100.937ZM671.673 202.632C671.673 174.459 659.305 155.22 631.133 155.22H607.084V250.043H627.01C656.557 249.356 671.673 231.491 671.673 202.632ZM805.662 58.3351C782.987 58.3351 768.557 71.3905 768.557 94.7527C768.557 115.367 791.232 125.673 813.22 133.232C826.275 138.042 842.766 144.226 854.447 154.533C866.815 166.214 873.686 182.018 872.999 201.944C872.312 239.049 846.202 264.473 800.165 264.473C782.987 264.473 756.189 260.35 740.385 251.417L738.324 195.76H752.066C753.44 233.552 770.618 252.792 801.539 252.792C826.275 252.792 840.018 236.301 840.018 210.877C840.018 188.889 822.152 179.956 794.668 170.337C785.735 167.588 767.87 160.717 755.502 148.349C744.508 137.355 739.011 122.925 739.011 108.495C739.011 65.2063 769.931 45.9668 808.41 45.9668C823.527 45.9668 846.202 51.4638 859.944 59.0222L861.318 107.808H847.576C845.515 73.4518 830.398 58.3351 805.662 58.3351Z" fill="white"/>
<path d="M234.663 92.0049L229.166 96.8148L235.35 116.741L217.485 107.122L211.301 111.932L231.228 122.926L209.927 140.104L204.43 132.545L211.988 126.361L206.491 119.49L198.933 125.674L192.749 117.429L200.307 111.244L194.81 103.686L156.332 135.981L193.436 165.527L200.307 157.282C205.117 157.282 208.553 161.405 210.614 165.527L203.743 173.773L207.866 177.209C216.798 168.963 229.166 163.466 241.534 163.466C267.645 163.466 287.571 184.767 287.571 210.878C287.571 219.123 285.51 228.743 280.7 236.301L287.571 241.798C287.571 246.608 282.762 252.105 277.952 253.48L271.081 247.983C262.148 256.915 249.78 261.725 237.412 261.725C211.301 261.725 191.375 241.111 191.375 215C191.375 206.755 194.123 197.822 197.559 190.264L192.749 186.828L185.878 195.761C181.068 195.074 176.945 191.638 175.571 186.828L182.442 179.27L151.522 153.159V194.387H161.829C163.203 196.448 163.89 198.509 163.89 200.571C163.89 202.632 163.203 205.381 161.829 207.442H151.522V212.252C174.197 216.375 193.436 235.614 193.436 258.977C193.436 283.026 174.884 302.265 151.522 306.388V314.634C149.46 316.008 146.712 316.695 143.963 316.695C141.215 316.695 137.779 316.008 135.718 314.634V306.388C112.356 302.953 94.4908 283.026 94.4908 258.977C94.4908 235.614 112.356 216.375 135.718 212.939V207.442H124.724C123.35 205.381 122.663 203.319 122.663 200.571C122.663 197.822 123.35 195.761 124.724 193.7H135.718V152.472L104.111 178.583L110.982 186.141C109.607 190.951 105.485 194.387 100.675 195.074L93.8037 186.141L89.681 190.264C93.8037 197.822 96.5522 206.068 96.5522 215C96.5522 241.111 75.9386 261.725 50.5152 261.725C38.147 261.725 25.7789 256.915 16.8463 247.983L9.97514 253.48C5.85243 252.105 1.04259 246.608 0.355469 241.798L7.22666 236.301C3.10395 228.743 0.355469 219.81 0.355469 210.878C0.355469 184.767 20.2819 163.466 46.3925 163.466C58.7606 163.466 71.1288 168.963 80.0613 177.209L84.1841 174.46L77.3129 166.215C78.6871 162.092 82.8098 158.656 87.6197 157.969L94.4908 166.215L131.595 136.668L93.1166 104.373L87.6197 111.932L95.178 118.116L89.681 125.674L82.1227 119.49L76.6257 126.361L82.8098 131.171L77.3129 138.729L56.6993 121.551L75.9386 110.557L70.4417 105.747L52.5766 115.367L58.0735 96.8148L52.5766 92.0049L45.7054 113.306L24.4047 96.1277L29.9016 89.2564L37.4599 95.4406L43.644 88.5693L36.0857 81.698L41.5826 74.8268L49.141 80.3238L54.6379 73.4525L38.147 61.0843C39.5213 55.5873 42.9569 51.4645 48.4538 48.0289L135.718 119.49V72.0783H126.785V81.0109H117.853V72.0783H108.92V81.0109H99.9878V54.213L120.601 63.1456V55.5873L101.362 47.3417L120.601 39.7834V32.9121L99.9878 41.1576V13.6726H108.92V23.2923H117.853V13.6726H126.785V23.2923H135.718V1.99144C138.467 1.30431 141.215 0.617188 143.963 0.617188C146.712 0.617188 149.46 1.30431 151.522 1.99144V119.49L238.786 48.0289C243.596 51.4645 247.031 55.5873 249.093 61.0843L232.602 74.1397L238.099 81.0109L245.657 75.5139L251.154 82.3852L243.596 89.2564L249.093 96.1277L256.651 89.9436L262.148 96.8148L240.847 113.993L234.663 92.0049ZM56.6993 221.185C56.6993 228.743 62.1962 233.553 69.0674 234.24L58.0735 242.486C50.5152 239.737 43.644 230.804 43.644 222.559C43.644 219.81 44.3311 218.436 45.0182 216.375H42.9569C32.6501 216.375 24.4047 206.755 22.3433 197.135L34.0243 188.203V191.638C34.0243 197.822 40.2084 203.319 46.3925 203.319C53.2637 203.319 59.4478 197.822 59.4478 190.951C59.4478 182.706 53.2637 177.209 45.0182 177.209C29.9016 177.209 14.785 192.325 14.785 211.565C14.785 217.062 16.1592 222.559 18.2206 227.369L25.0918 221.872C29.9016 223.933 33.3372 228.743 34.7114 234.24L27.8403 239.737C34.7114 245.234 42.9569 247.983 51.2023 247.983C69.0674 247.983 82.8098 233.553 82.8098 221.185C82.8098 213.626 78 207.442 70.4417 207.442C62.1962 208.816 56.6993 214.313 56.6993 221.185ZM150.148 248.67C150.148 255.541 155.644 261.038 162.516 261.038C167.326 261.038 169.387 258.977 172.822 256.228V270.658C169.387 272.719 165.951 273.406 161.829 273.406C154.27 273.406 148.086 271.345 143.963 264.474C139.841 271.345 132.97 273.406 125.411 273.406C121.976 273.406 117.853 272.719 114.417 270.658V256.228C117.853 259.664 119.914 261.038 124.724 261.038C131.595 261.038 137.092 255.541 137.092 248.67C137.092 241.798 132.97 236.301 125.411 236.301C112.356 236.301 106.859 248.67 106.859 260.351C106.859 276.842 119.227 291.271 135.031 294.02V285.774C137.779 284.4 140.528 284.4 142.589 284.4C145.338 284.4 148.086 284.4 150.835 285.774V294.02C165.951 291.959 179.007 276.155 179.007 260.351C179.007 248.67 174.197 236.301 160.454 236.301C154.957 235.614 150.148 241.798 150.148 248.67ZM228.479 191.638C228.479 197.822 235.35 204.006 241.534 204.006C247.719 204.006 253.903 198.509 253.903 192.325V188.89L264.897 197.822C262.835 208.816 253.215 217.749 242.222 217.062C242.909 219.123 242.909 221.185 242.909 223.246C242.909 231.491 236.037 240.424 228.479 243.173L218.172 234.24C225.044 233.553 230.541 228.743 230.541 221.185C230.541 213.626 224.356 208.816 217.485 208.816C209.927 208.816 205.117 215 205.117 222.559C205.117 231.491 216.111 249.357 237.412 249.357C245.657 249.357 253.903 246.608 260.087 241.111L253.215 235.614C254.59 230.117 258.025 225.307 262.835 223.246L269.706 228.743C272.455 223.933 273.829 218.436 273.829 212.939C273.829 197.822 262.148 178.583 243.596 178.583C235.35 178.583 228.479 183.393 228.479 191.638Z" fill="white"/>
</svg>
