<svg width="874" height="317" viewBox="0 0 874 317" fill="none" xmlns="http://www.w3.org/2000/svg">
<path d="M511.278 190.95C511.278 256.227 475.548 264.473 439.817 264.473C378.664 264.473 365.609 232.865 365.609 188.202V61.0836H342.934V48.7153H428.824V61.0836H404.774V184.079C404.774 227.368 415.768 249.356 447.376 249.356C478.983 249.356 494.787 233.552 494.787 188.202V61.0836H472.112V48.7153H533.266V61.0836H512.652L511.278 190.95ZM571.057 249.356V61.0836H547.008V48.7153H641.831C682.371 48.7153 702.297 71.3905 702.297 98.1884C702.297 127.048 676.187 142.852 653.512 147.661C698.174 151.784 710.543 180.643 710.543 201.944C710.543 245.233 673.438 261.724 637.708 261.724H545.634V249.356H571.057ZM663.818 100.937C663.818 81.0102 653.512 61.0836 630.837 61.0836H606.1V142.852H628.088C652.825 142.852 663.818 122.925 663.818 100.937ZM672.064 202.632C672.064 174.459 659.696 155.22 631.524 155.22H607.475V250.043H627.401C656.947 249.356 672.064 231.491 672.064 202.632ZM806.052 58.3351C783.377 58.3351 768.948 71.3905 768.948 94.7527C768.948 115.367 791.623 125.673 813.611 133.232C826.666 138.042 843.157 144.226 854.838 154.533C867.206 166.214 874.077 182.018 873.39 201.944C872.703 239.049 846.592 264.473 800.555 264.473C783.377 264.473 756.58 260.35 740.776 251.417L738.714 195.76H752.457C753.831 233.552 771.009 252.792 801.929 252.792C826.666 252.792 840.408 236.301 840.408 210.877C840.408 188.889 822.543 179.956 795.058 170.337C786.126 167.588 768.261 160.717 755.892 148.349C744.899 137.355 739.402 122.925 739.402 108.495C739.402 65.2063 770.322 45.9668 808.801 45.9668C823.917 45.9668 846.592 51.4638 860.335 59.0222L861.709 107.808H847.966C845.905 73.4518 830.788 58.3351 806.052 58.3351Z" fill="black"/>
<path d="M235.054 92.0049L229.557 96.8148L235.741 116.741L217.876 107.122L211.692 111.932L231.618 122.926L210.318 140.104L204.821 132.545L212.379 126.361L206.882 119.49L199.324 125.674L193.14 117.429L200.698 111.244L195.201 103.686L156.722 135.981L193.827 165.527L200.698 157.282C205.508 157.282 208.943 161.405 211.005 165.527L204.133 173.773L208.256 177.209C217.189 168.963 229.557 163.466 241.925 163.466C268.036 163.466 287.962 184.767 287.962 210.878C287.962 219.123 285.901 228.743 281.091 236.301L287.962 241.798C287.962 246.608 283.152 252.105 278.342 253.48L271.471 247.983C262.539 256.915 250.171 261.725 237.802 261.725C211.692 261.725 191.765 241.111 191.765 215C191.765 206.755 194.514 197.822 197.949 190.264L193.14 186.828L186.268 195.761C181.459 195.074 177.336 191.638 175.962 186.828L182.833 179.27L151.912 153.159V194.387H162.219C163.593 196.448 164.281 198.509 164.281 200.571C164.281 202.632 163.593 205.381 162.219 207.442H151.912V212.252C174.587 216.375 193.827 235.614 193.827 258.977C193.827 283.026 175.274 302.265 151.912 306.388V314.634C149.851 316.008 147.103 316.695 144.354 316.695C141.606 316.695 138.17 316.008 136.109 314.634V306.388C112.747 302.953 94.8815 283.026 94.8815 258.977C94.8815 235.614 112.747 216.375 136.109 212.939V207.442H125.115C123.741 205.381 123.053 203.319 123.053 200.571C123.053 197.822 123.741 195.761 125.115 193.7H136.109V152.472L104.501 178.583L111.372 186.141C109.998 190.951 105.875 194.387 101.066 195.074L94.1944 186.141L90.0716 190.264C94.1944 197.822 96.9428 206.068 96.9428 215C96.9428 241.111 76.3292 261.725 50.9058 261.725C38.5377 261.725 26.1695 256.915 17.237 247.983L10.3658 253.48C6.24305 252.105 1.43321 246.608 0.746094 241.798L7.61729 236.301C3.49457 228.743 0.746094 219.81 0.746094 210.878C0.746094 184.767 20.6726 163.466 46.7831 163.466C59.1513 163.466 71.5194 168.963 80.452 177.209L84.5747 174.46L77.7035 166.215C79.0777 162.092 83.2004 158.656 88.0103 157.969L94.8815 166.215L131.986 136.668L93.5072 104.373L88.0103 111.932L95.5686 118.116L90.0716 125.674L82.5133 119.49L77.0164 126.361L83.2004 131.171L77.7035 138.729L57.0899 121.551L76.3292 110.557L70.8323 105.747L52.9672 115.367L58.4641 96.8148L52.9672 92.0049L46.096 113.306L24.7953 96.1277L30.2922 89.2564L37.8506 95.4406L44.0346 88.5693L36.4763 81.698L41.9733 74.8268L49.5316 80.3238L55.0285 73.4525L38.5377 61.0843C39.9119 55.5873 43.3475 51.4645 48.8445 48.0289L136.109 119.49V72.0783H127.176V81.0109H118.244V72.0783H109.311V81.0109H100.378V54.213L120.992 63.1456V55.5873L101.753 47.3417L120.992 39.7834V32.9121L100.378 41.1576V13.6726H109.311V23.2923H118.244V13.6726H127.176V23.2923H136.109V1.99144C138.857 1.30431 141.606 0.617188 144.354 0.617188C147.103 0.617188 149.851 1.30431 151.912 1.99144V119.49L239.177 48.0289C243.986 51.4645 247.422 55.5873 249.483 61.0843L232.993 74.1397L238.489 81.0109L246.048 75.5139L251.545 82.3852L243.986 89.2564L249.483 96.1277L257.042 89.9436L262.539 96.8148L241.238 113.993L235.054 92.0049ZM57.0899 221.185C57.0899 228.743 62.5869 233.553 69.4581 234.24L58.4641 242.486C50.9058 239.737 44.0346 230.804 44.0346 222.559C44.0346 219.81 44.7217 218.436 45.4089 216.375H43.3475C33.0407 216.375 24.7953 206.755 22.7339 197.135L34.415 188.203V191.638C34.415 197.822 40.599 203.319 46.7831 203.319C53.6543 203.319 59.8384 197.822 59.8384 190.951C59.8384 182.706 53.6543 177.209 45.4089 177.209C30.2922 177.209 15.1756 192.325 15.1756 211.565C15.1756 217.062 16.5498 222.559 18.6112 227.369L25.4824 221.872C30.2922 223.933 33.7278 228.743 35.1021 234.24L28.2309 239.737C35.1021 245.234 43.3475 247.983 51.5929 247.983C69.4581 247.983 83.2004 233.553 83.2004 221.185C83.2004 213.626 78.3906 207.442 70.8323 207.442C62.5869 208.816 57.0899 214.313 57.0899 221.185ZM150.538 248.67C150.538 255.541 156.035 261.038 162.906 261.038C167.716 261.038 169.778 258.977 173.213 256.228V270.658C169.778 272.719 166.342 273.406 162.219 273.406C154.661 273.406 148.477 271.345 144.354 264.474C140.231 271.345 133.36 273.406 125.802 273.406C122.366 273.406 118.244 272.719 114.808 270.658V256.228C118.244 259.664 120.305 261.038 125.115 261.038C131.986 261.038 137.483 255.541 137.483 248.67C137.483 241.798 133.36 236.301 125.802 236.301C112.747 236.301 107.25 248.67 107.25 260.351C107.25 276.842 119.618 291.271 135.422 294.02V285.774C138.17 284.4 140.918 284.4 142.98 284.4C145.728 284.4 148.477 284.4 151.225 285.774V294.02C166.342 291.959 179.397 276.155 179.397 260.351C179.397 248.67 174.587 236.301 160.845 236.301C155.348 235.614 150.538 241.798 150.538 248.67ZM228.87 191.638C228.87 197.822 235.741 204.006 241.925 204.006C248.109 204.006 254.293 198.509 254.293 192.325V188.89L265.287 197.822C263.226 208.816 253.606 217.749 242.612 217.062C243.299 219.123 243.299 221.185 243.299 223.246C243.299 231.491 236.428 240.424 228.87 243.173L218.563 234.24C225.434 233.553 230.931 228.743 230.931 221.185C230.931 213.626 224.747 208.816 217.876 208.816C210.318 208.816 205.508 215 205.508 222.559C205.508 231.491 216.502 249.357 237.802 249.357C246.048 249.357 254.293 246.608 260.477 241.111L253.606 235.614C254.98 230.117 258.416 225.307 263.226 223.246L270.097 228.743C272.845 223.933 274.22 218.436 274.22 212.939C274.22 197.822 262.539 178.583 243.986 178.583C235.741 178.583 228.87 183.393 228.87 191.638Z" fill="black"/>
</svg>
