<svg width="874" height="317" viewBox="0 0 874 317" fill="none" xmlns="http://www.w3.org/2000/svg">
<path d="M510.887 190.755C510.887 256.032 475.157 264.278 439.427 264.278C378.273 264.278 365.218 232.67 365.218 188.007V60.8883H342.543V48.52H428.433V60.8883H404.384V183.884C404.384 227.173 415.378 249.161 446.985 249.161C478.593 249.161 494.396 233.357 494.396 188.007V60.8883H471.721V48.52H532.875V60.8883H512.262L510.887 190.755ZM570.667 249.161V60.8883H546.617V48.52H641.44C681.98 48.52 701.907 71.1951 701.907 97.9931C701.907 126.852 675.796 142.656 653.121 147.466C697.784 151.589 710.152 180.448 710.152 201.749C710.152 245.038 673.047 261.529 637.317 261.529H545.243V249.161H570.667ZM663.428 100.742C663.428 80.8149 653.121 60.8883 630.446 60.8883H605.71V142.656H627.698C652.434 142.656 663.428 122.73 663.428 100.742ZM671.673 202.436C671.673 174.264 659.305 155.025 631.133 155.025H607.084V249.848H627.01C656.557 249.161 671.673 231.295 671.673 202.436ZM805.662 58.1397C782.987 58.1397 768.557 71.1951 768.557 94.5574C768.557 115.171 791.232 125.478 813.22 133.036C826.275 137.846 842.766 144.03 854.447 154.337C866.815 166.019 873.686 181.822 872.999 201.749C872.312 238.854 846.202 264.278 800.165 264.278C782.987 264.278 756.189 260.155 740.385 251.222L738.324 195.565H752.066C753.44 233.357 770.618 252.596 801.539 252.596C826.275 252.596 840.018 236.105 840.018 210.682C840.018 188.694 822.152 179.761 794.668 170.141C785.735 167.393 767.87 160.522 755.502 148.153C744.508 137.159 739.011 122.73 739.011 108.3C739.011 65.011 769.931 45.7715 808.41 45.7715C823.527 45.7715 846.202 51.2685 859.944 58.8269L861.318 107.613H847.576C845.515 73.2565 830.398 58.1397 805.662 58.1397Z" fill="#D9D9D9"/>
<path d="M234.663 91.8096L229.166 96.6195L235.35 116.546L217.485 106.926L211.301 111.736L231.228 122.73L209.927 139.908L204.43 132.35L211.988 126.166L206.491 119.295L198.933 125.479L192.749 117.233L200.307 111.049L194.81 103.491L156.332 135.786L193.436 165.332L200.307 157.087C205.117 157.087 208.553 161.209 210.614 165.332L203.743 173.578L207.866 177.013C216.798 168.768 229.166 163.271 241.534 163.271C267.645 163.271 287.571 184.572 287.571 210.682C287.571 218.928 285.51 228.548 280.7 236.106L287.571 241.603C287.571 246.413 282.762 251.91 277.952 253.284L271.081 247.787C262.148 256.72 249.78 261.53 237.412 261.53C211.301 261.53 191.375 240.916 191.375 214.805C191.375 206.56 194.123 197.627 197.559 190.069L192.749 186.633L185.878 195.566C181.068 194.878 176.945 191.443 175.571 186.633L182.442 179.075L151.522 152.964V194.191H161.829C163.203 196.253 163.89 198.314 163.89 200.376C163.89 202.437 163.203 205.185 161.829 207.247H151.522V212.057C174.197 216.179 193.436 235.419 193.436 258.781C193.436 282.831 174.884 302.07 151.522 306.193V314.438C149.46 315.813 146.712 316.5 143.963 316.5C141.215 316.5 137.779 315.813 135.718 314.438V306.193C112.356 302.757 94.4908 282.831 94.4908 258.781C94.4908 235.419 112.356 216.179 135.718 212.744V207.247H124.724C123.35 205.185 122.663 203.124 122.663 200.376C122.663 197.627 123.35 195.566 124.724 193.504H135.718V152.277L104.111 178.387L110.982 185.946C109.607 190.756 105.485 194.191 100.675 194.878L93.8037 185.946L89.681 190.069C93.8037 197.627 96.5522 205.873 96.5522 214.805C96.5522 240.916 75.9386 261.53 50.5152 261.53C38.147 261.53 25.7789 256.72 16.8463 247.787L9.97514 253.284C5.85243 251.91 1.04259 246.413 0.355469 241.603L7.22666 236.106C3.10395 228.548 0.355469 219.615 0.355469 210.682C0.355469 184.572 20.2819 163.271 46.3925 163.271C58.7606 163.271 71.1288 168.768 80.0613 177.013L84.1841 174.265L77.3129 166.019C78.6871 161.896 82.8098 158.461 87.6197 157.774L94.4908 166.019L131.595 136.473L93.1166 104.178L87.6197 111.736L95.178 117.92L89.681 125.479L82.1227 119.295L76.6257 126.166L82.8098 130.976L77.3129 138.534L56.6993 121.356L75.9386 110.362L70.4417 105.552L52.5766 115.172L58.0735 96.6195L52.5766 91.8096L45.7054 113.111L24.4047 95.9324L29.9016 89.0611L37.4599 95.2452L43.644 88.374L36.0857 81.5027L41.5826 74.6315L49.141 80.1285L54.6379 73.2572L38.147 60.889C39.5213 55.3919 42.9569 51.2692 48.4538 47.8336L135.718 119.295V71.883H126.785V80.8156H117.853V71.883H108.92V80.8156H99.9878V54.0177L120.601 62.9503V55.3919L101.362 47.1464L120.601 39.588V32.7168L99.9878 40.9623V13.4773H108.92V23.097H117.853V13.4773H126.785V23.097H135.718V1.79613C138.467 1.109 141.215 0.421875 143.963 0.421875C146.712 0.421875 149.46 1.109 151.522 1.79613V119.295L238.786 47.8336C243.596 51.2692 247.031 55.3919 249.093 60.889L232.602 73.9443L238.099 80.8156L245.657 75.3186L251.154 82.1899L243.596 89.0611L249.093 95.9324L256.651 89.7482L262.148 96.6195L240.847 113.798L234.663 91.8096ZM56.6993 220.989C56.6993 228.548 62.1962 233.358 69.0674 234.045L58.0735 242.29C50.5152 239.542 43.644 230.609 43.644 222.364C43.644 219.615 44.3311 218.241 45.0182 216.179H42.9569C32.6501 216.179 24.4047 206.56 22.3433 196.94L34.0243 188.007V191.443C34.0243 197.627 40.2084 203.124 46.3925 203.124C53.2637 203.124 59.4478 197.627 59.4478 190.756C59.4478 182.51 53.2637 177.013 45.0182 177.013C29.9016 177.013 14.785 192.13 14.785 211.37C14.785 216.867 16.1592 222.364 18.2206 227.173L25.0918 221.676C29.9016 223.738 33.3372 228.548 34.7114 234.045L27.8403 239.542C34.7114 245.039 42.9569 247.787 51.2023 247.787C69.0674 247.787 82.8098 233.358 82.8098 220.989C82.8098 213.431 78 207.247 70.4417 207.247C62.1962 208.621 56.6993 214.118 56.6993 220.989ZM150.148 248.474C150.148 255.346 155.644 260.843 162.516 260.843C167.326 260.843 169.387 258.781 172.822 256.033V270.462C169.387 272.524 165.951 273.211 161.829 273.211C154.27 273.211 148.086 271.149 143.963 264.278C139.841 271.149 132.97 273.211 125.411 273.211C121.976 273.211 117.853 272.524 114.417 270.462V256.033C117.853 259.468 119.914 260.843 124.724 260.843C131.595 260.843 137.092 255.346 137.092 248.474C137.092 241.603 132.97 236.106 125.411 236.106C112.356 236.106 106.859 248.474 106.859 260.155C106.859 276.646 119.227 291.076 135.031 293.825V285.579C137.779 284.205 140.528 284.205 142.589 284.205C145.338 284.205 148.086 284.205 150.835 285.579V293.825C165.951 291.763 179.007 275.959 179.007 260.155C179.007 248.474 174.197 236.106 160.454 236.106C154.957 235.419 150.148 241.603 150.148 248.474ZM228.479 191.443C228.479 197.627 235.35 203.811 241.534 203.811C247.719 203.811 253.903 198.314 253.903 192.13V188.694L264.897 197.627C262.835 208.621 253.215 217.554 242.222 216.867C242.909 218.928 242.909 220.989 242.909 223.051C242.909 231.296 236.037 240.229 228.479 242.977L218.172 234.045C225.044 233.358 230.541 228.548 230.541 220.989C230.541 213.431 224.356 208.621 217.485 208.621C209.927 208.621 205.117 214.805 205.117 222.364C205.117 231.296 216.111 249.161 237.412 249.161C245.657 249.161 253.903 246.413 260.087 240.916L253.215 235.419C254.59 229.922 258.025 225.112 262.835 223.051L269.706 228.548C272.455 223.738 273.829 218.241 273.829 212.744C273.829 197.627 262.148 178.387 243.596 178.387C235.35 178.387 228.479 183.197 228.479 191.443Z" fill="#D9D9D9"/>
</svg>
