<svg width="847" height="848" viewBox="0 0 847 848" fill="none" xmlns="http://www.w3.org/2000/svg">
<rect width="847" height="848" fill="#D9D9D9"/>
<path d="M363.256 713.475C374.49 699.446 382.354 682.892 386.848 663.813C391.342 644.734 393.589 618.921 393.589 586.374V173.928H322.812C286.301 173.928 258.215 177.295 238.555 184.029C218.894 190.763 203.447 201.705 192.213 216.856H188V131H659V216.856H655.63C644.395 201.705 628.948 190.763 609.288 184.029C590.19 177.295 562.104 173.928 525.03 173.928H453.411V586.374C453.411 618.921 455.658 644.734 460.152 663.813C464.646 682.331 472.51 698.885 483.744 713.475V716H363.256V713.475Z" fill="#111111"/>
<path d="M521.783 241.783V243.718L522.913 245.288C529.491 254.425 534.137 265.306 536.761 278.053C539.418 290.958 540.797 308.332 540.797 330.325V420.593H306.203V330.325C306.203 308.332 307.582 290.958 310.239 278.053C312.863 265.306 317.509 254.425 324.087 245.288L325.217 243.718V241.783V240V234H319.217H239H233V240V241.783V243.783L234.2 245.383C240.722 254.08 245.356 264.72 247.978 277.459C250.634 290.359 252.014 307.927 252.014 330.325V562.081C252.014 584.479 250.634 602.047 247.978 614.947C245.354 627.694 240.708 638.575 234.131 647.712L233 649.282V651.217V653V659H239H319.217H325.217V653V651.217V649.343L324.151 647.802C317.506 638.204 312.855 627.27 310.236 614.93C307.582 602.032 306.203 584.469 306.203 562.081V464.088H540.797V562.081C540.797 584.47 539.418 602.033 536.764 614.932C534.144 627.271 529.494 638.204 522.849 647.802L521.783 649.343V651.217V653V659H527.783H608H614V653V651.217V649.196L612.777 647.587C605.864 638.49 601.06 627.679 598.445 615.03C596.165 602.062 594.986 584.458 594.986 562.081V330.325C594.986 307.948 596.165 290.344 598.445 277.376C601.058 264.737 605.848 254.168 612.704 245.507L614 243.87V241.783V240V234H608H527.783H521.783V240V241.783Z" fill="#111111" stroke="#D9D9D9" stroke-width="12"/>
</svg>
