<svg width="847" height="848" viewBox="0 0 847 848" fill="none" xmlns="http://www.w3.org/2000/svg">
<path d="M563.815 317.605C563.815 292.273 562.232 271.916 559.066 256.535C555.899 241.155 550.245 227.81 542.103 216.501V214.465H633.701V216.501C625.107 227.357 619.227 240.476 616.06 255.857C613.346 271.237 611.989 291.82 611.989 317.605V582.242C611.989 608.027 613.346 628.61 616.06 643.991C619.227 659.372 625.107 672.716 633.701 684.026V686.061H542.103V684.026C550.245 672.264 555.899 658.919 559.066 643.991C562.232 628.61 563.815 608.027 563.815 582.242V317.605ZM234.06 317.605C234.06 291.82 232.477 271.237 229.31 255.857C226.144 240.476 220.49 227.357 212.348 216.501V214.465H303.946V216.501C295.804 227.81 290.15 241.155 286.984 256.535C283.817 271.916 282.234 292.273 282.234 317.605V582.242C282.234 608.027 283.817 628.61 286.984 643.991C290.15 658.919 295.804 672.264 303.946 684.026V686.061H212.348V684.026C220.49 672.716 226.144 659.372 229.31 643.991C232.477 628.61 234.06 608.027 234.06 582.242V317.605ZM263.914 427.531H572.636V463.495H263.914V427.531Z" fill="#111111"/>
<path fill-rule="evenodd" clip-rule="evenodd" d="M381.174 698.409C376.043 720.195 367.063 739.097 354.234 755.117V758H491.818V755.117C478.989 738.457 470.01 719.554 464.878 698.409C459.747 676.623 457.181 647.147 457.181 609.983V477.198H388.871V609.983C388.871 647.147 386.305 676.623 381.174 698.409ZM388.871 413.829H457.181V139.019H538.962C581.295 139.019 613.366 142.863 635.174 150.553C657.623 158.242 675.262 170.737 688.09 188.037H691.939V90H154.113V188.037H158.924C171.752 170.737 189.391 158.242 211.841 150.553C234.29 142.863 266.361 139.019 308.053 139.019H388.871V413.829Z" fill="#111111"/>
</svg>
