<svg width="847" height="848" viewBox="0 0 847 848" fill="none" xmlns="http://www.w3.org/2000/svg">
<path d="M507.331 360.291C507.331 345.122 506.383 332.932 504.487 323.722C502.591 314.512 499.205 306.521 494.329 299.749V298.53H549.179V299.749C544.032 306.25 540.511 314.106 538.615 323.316C536.99 332.526 536.177 344.851 536.177 360.291V518.756C536.177 534.196 536.99 546.522 538.615 555.732C540.511 564.941 544.032 572.932 549.179 579.704V580.923H494.329V579.704C499.205 572.662 502.591 564.671 504.487 555.732C506.383 546.522 507.331 534.196 507.331 518.756V360.291ZM309.872 360.291C309.872 344.851 308.924 332.526 307.028 323.316C305.132 314.106 301.747 306.25 296.871 299.749V298.53H351.721V299.749C346.845 306.521 343.459 314.512 341.563 323.722C339.667 332.932 338.719 345.122 338.719 360.291V518.756C338.719 534.196 339.667 546.522 341.563 555.732C343.459 564.671 346.845 572.662 351.721 579.704V580.923H296.871V579.704C301.747 572.932 305.132 564.941 307.028 555.732C308.924 546.522 309.872 534.196 309.872 518.756V360.291ZM327.749 426.115H512.612V447.65H327.749V426.115Z" fill="#111111"/>
<path fill-rule="evenodd" clip-rule="evenodd" d="M397.964 588.317C394.892 601.362 389.515 612.681 381.833 622.273V624H464.218V622.273C456.537 612.297 451.16 600.978 448.087 588.317C445.014 575.271 443.478 557.621 443.478 535.367V455.855H402.573V535.367C402.573 557.621 401.037 575.271 397.964 588.317ZM402.573 417.91H443.478V253.353H492.448C517.797 253.353 537.001 255.655 550.06 260.259C563.503 264.863 574.065 272.345 581.747 282.705H584.051V224H262V282.705H264.881C272.562 272.345 283.124 264.863 296.567 260.259C310.01 255.655 329.214 253.353 354.179 253.353H402.573V417.91Z" fill="#111111"/>
</svg>
