<svg width="847" height="848" viewBox="0 0 847 848" fill="none" xmlns="http://www.w3.org/2000/svg">
<path fill-rule="evenodd" clip-rule="evenodd" d="M0 0H847V848H0V0ZM546.797 330.325C546.797 308.14 545.41 290.312 542.637 276.843C539.863 263.374 534.914 251.687 527.781 241.783V240H608V241.783C600.473 251.291 595.324 262.779 592.551 276.249C590.176 289.719 588.984 307.744 588.984 330.325V562.08C588.984 584.662 590.176 602.688 592.551 616.157C595.324 629.626 600.473 641.313 608 651.217V653H527.781V651.217C534.914 640.917 539.863 629.23 542.637 616.157C545.41 602.688 546.797 584.662 546.797 562.08V458.088H453.41V586.374C453.41 618.921 455.66 644.733 460.152 663.812C464.645 682.331 472.512 698.885 483.746 713.475V716H363.254V713.475C374.488 699.446 382.355 682.893 386.848 663.812C391.34 644.733 393.59 618.921 393.59 586.374V458.088H300.203V562.08C300.203 584.662 301.59 602.688 304.363 616.157C307.137 629.23 312.086 640.917 319.219 651.217V653H239V651.217C246.129 641.313 251.082 629.626 253.855 616.157C256.629 602.688 258.016 584.662 258.016 562.08V330.325C258.016 307.744 256.629 289.719 253.855 276.249C251.082 262.779 246.129 251.291 239 241.783V240H319.219V241.783C312.086 251.687 307.137 263.374 304.363 276.843C301.59 290.312 300.203 308.14 300.203 330.325V426.593H393.59V173.928H322.812C286.301 173.928 258.215 177.295 238.555 184.028C218.895 190.763 203.445 201.705 192.211 216.856H188V131H659V216.856H655.629C644.395 201.705 628.949 190.763 609.289 184.028C590.191 177.295 562.105 173.928 525.031 173.928H453.41V426.593H546.797V330.325Z" fill="#D9D9D9"/>
</svg>
