<svg width="108" height="108" viewBox="0 0 108 108" fill="none" xmlns="http://www.w3.org/2000/svg">
<path d="M2.34315 94.3431C-0.781048 97.4673 -0.781048 102.533 2.34315 105.657C5.46734 108.781 10.5327 108.781 13.6569 105.657L2.34315 94.3431ZM108 8C108 3.58172 104.418 -4.22983e-07 100 -4.22983e-07L28 -4.22983e-07C23.5817 -4.22983e-07 20 3.58172 20 8C20 12.4183 23.5817 16 28 16H92V80C92 84.4183 95.5817 88 100 88C104.418 88 108 84.4183 108 80L108 8ZM13.6569 105.657L105.657 13.6569L94.3431 2.34315L2.34315 94.3431L13.6569 105.657Z" fill="#D9D9D9"/>
</svg>
