<?xml version="1.0" encoding="utf-8"?>
<!-- Generator: Adobe Illustrator 28.2.0, SVG Export Plug-In . SVG Version: 6.00 Build 0)  -->
<svg version="1.1" id="Layer_1" xmlns="http://www.w3.org/2000/svg" xmlns:xlink="http://www.w3.org/1999/xlink" x="0px" y="0px"
	 viewBox="0 0 16 16" style="enable-background:new 0 0 16 16;" xml:space="preserve">
<style type="text/css">
	.st0{fill:#FFFFFF;}
</style>
<path class="st0" d="M11.5,14c1.6-1.6,2.5-3.8,2.5-6c0-2.3-0.9-4.4-2.5-6l-0.7,0.7C12.2,4.1,13,6,13,8c0,2.1-0.8,3.9-2.2,5.3
	L11.5,14z"/>
<path class="st0" d="M10.1,12.6C11.3,11.4,12,9.7,12,8c0-1.7-0.7-3.4-1.9-4.6L9.4,4.1c1,1,1.6,2.4,1.6,3.9c0,1.5-0.6,2.9-1.6,3.9
	L10.1,12.6z"/>
<path class="st0" d="M8.7,11.2C9.6,10.3,10,9.2,10,8c0-1.2-0.5-2.3-1.3-3.2L8,5.5C8.7,6.2,9,7.1,9,8c0,0.9-0.4,1.8-1,2.5L8.7,11.2z
	 M6.7,3.5C6.9,3.6,7,3.8,7,4v8c0,0.3-0.2,0.5-0.5,0.5c-0.1,0-0.2,0-0.3-0.1l-2.4-1.9H1.5C1.2,10.5,1,10.3,1,10V6
	c0-0.3,0.2-0.5,0.5-0.5h2.3l2.4-1.9C6.3,3.5,6.5,3.5,6.7,3.5"/>
</svg>
